/* XPM */
static char *result[] = {
/* columns rows colors chars-per-pixel */
"64 64 115 2 ",
"   c #626263",
".  c #666768",
"X  c #6B6C6D",
"o  c #707172",
"O  c #757677",
"+  c #7C7C7C",
"@  c gray49",
"#  c #7E7E7E",
"$  c gray50",
"%  c #808080",
"&  c #818181",
"*  c gray51",
"=  c #838383",
"-  c #848484",
";  c gray52",
":  c gray53",
">  c #8B8B8B",
",  c gray55",
"<  c #8D8D8D",
"1  c #8C8E8F",
"2  c #8E8E8E",
"3  c gray56",
"4  c #8E8F91",
"5  c #8E9191",
"6  c #8F9191",
"7  c #909090",
"8  c gray57",
"9  c #909193",
"0  c #919292",
"q  c #909293",
"w  c #929292",
"e  c #939393",
"r  c #919394",
"t  c #929394",
"y  c #929494",
"u  c #939495",
"i  c #939595",
"p  c #939496",
"a  c #939596",
"s  c #939597",
"d  c gray58",
"f  c #959595",
"g  c #949697",
"h  c #949797",
"j  c gray59",
"k  c #979797",
"l  c #959698",
"z  c #949798",
"x  c #979799",
"c  c #959898",
"v  c #959899",
"b  c #97999A",
"n  c #97989B",
"m  c #989898",
"M  c gray60",
"N  c #98999A",
"B  c #98999B",
"V  c #9A9A9A",
"C  c #9B9B9B",
"Z  c #999A9C",
"A  c #9A9A9C",
"S  c #9A9B9C",
"D  c #9A9A9D",
"F  c #9A9B9E",
"G  c #9A9C9E",
"H  c #9B9C9E",
"J  c gray61",
"K  c #9D9D9D",
"L  c #9C9E9F",
"P  c gray62",
"I  c #9F9F9F",
"U  c #9C9EA0",
"Y  c #9C9FA0",
"T  c #9D9EA1",
"R  c #9D9FA1",
"E  c #9E9FA2",
"W  c #9FA2A3",
"Q  c #A0A0A0",
"!  c #A0A3A3",
"~  c #A0A2A4",
"^  c #A1A2A4",
"/  c #A0A3A4",
"(  c #A1A3A4",
")  c #A2A4A5",
"_  c #A3A4A5",
"`  c #A3A5A5",
"'  c #A3A5A6",
"]  c #A4A5A8",
"[  c #A4A6A8",
"{  c #A5A8A9",
"}  c #A6A8A9",
"|  c #A6A8AA",
" . c #A6A9AA",
".. c #A8A9AA",
"X. c #A8A9AB",
"o. c #A8AAAB",
"O. c #A9AAAB",
"+. c #A9AAAC",
"@. c #A8ABAC",
"#. c #A9ABAC",
"$. c #AAABAE",
"%. c #AAACAE",
"&. c #ABACAE",
"*. c #ABACAF",
"=. c #ABAEB0",
"-. c #ACAEB0",
";. c #ACAFB1",
":. c #AFB1B2",
">. c #AFB1B3",
",. c #B0B1B3",
"<. c #B0B2B5",
"1. c #B1B2B5",
"2. c #B1B3B5",
"3. c #B2B5B6",
"4. c None",
/* pixels */
"4.4.4.4.4.4.4.4.4.4.4.4.4.4.4.4.4.4.4.4.4.4.4.4.4.4.4.4.4.4.4.4.4.4.4.4.4.4.4.4.4.4.4.4.4.4.4.4.4.4.4.4.4.4.4.4.4.4.4.4.4.4.4.4.",
"4.4.4.4.4.4.4.4.4.4.4.4.4.4.4.4.4.4.4.4.4.4.4.4.4.4.4.4.4.4.4.4.4.4.4.4.4.4.4.4.4.4.4.4.4.4.4.4.4.4.4.4.4.4.4.4.4.4.4.4.4.4.4.4.",
"4.=.@.$ , , , , , , , , , , , , , , , , , , , , , , , , , , , , , , , , , , , , , , , , , < < < < < < < < < < < < < < < < < < < ",
"4.$. .$ , <                                                                                                                     ",
"4.o.o.* , <   . . . . . . . . . . . . . . . . . . . . . . . . . . . . . . . . . . . . . . . . . . . . . . . . . . . . . . . .   ",
"4.' ^ # , <   . X X X X X X X X X X X X X X X X X X X X X X X X X X X X X X X X X X X X X X X X X X X X X X X X X X X X X X .   ",
"4.) Y & , <   . X o o o o o o o o o o o o o o o o o o o o o o o o o o o o o o o o o o o o o o o o o o o o o o o o o o o o X .   ",
"4.O./ % , <   . X o O O O O O O O O O O O O O O O O O O O O O O O O O O O O O O O O O O O O O O O O O O O O O O O O O O o X .   ",
"4.%.~ # , <   . X o O O O O O O O O O O O O O O O O O O O O O O O O O O O O O O O O O O O O O O O O O O O O O O O O O O o X .   ",
"4.[ H & , <   . X o O O O O O O O O O O O O O O O O O O O O O O O O O O O O O O O O O O O O O O O O O O O O O O O O O O o X .   ",
"4.X.L % , <   . X o O O O O O O O O O O O O O O O O O O O O O O O O O O O O O O O O O O O O O O O O O O O O O O O O O O o X .   ",
"4.{ A & , <   . X o O O O O O O O O O O O O O O O O O O O O O O O O O O O O O O O O O O O O O O O O O O O O O O O O O O o X .   ",
"4._ a % , <   . X o O O O O O O O O O O O O O O O O O O O O O O O O O O O O O O O O O O O O O O O O O O O O O O O O O O o X .   ",
"4...F % , <   . X o o o o o o o o o o o o o o o o o o o o o o o o o o o o o o o o o o o o o o o o o o o o o o o o o o o o X .   ",
"4.' c @ , <   . X X X X X X X X X X X X X X X X X X X X X X X X X X X X X X X X X X X X X X X X X X X X X X X X X X X X X X .   ",
"4.[ u * , <   . . . . . . . . . . . . . . . . . . . . . . . . . . . . . . . . . . . . . . . . . . . . . . . . . . . . . . . .   ",
"4.| z % , <                                                                                                                     ",
"4...v & , < < 2 2 3 7 7 8 w w e d d f f j j j j j j j j j j j j j j j j j j j j j j j j j j j j j j j f d d e e w 8 8 7 3 3 2 < ",
"4.$.Z * , <                                                                                                                     ",
"4. .t $ , <   . . . . . . . . . . . . . . . . . . . . . . . . . . . . . . . . . . . . . . . . . . . . . . . . . . . . . . . .   ",
"4.| t $ , <   . X X X X X X X X X X X X X X X X X X X X X X X X X X X X X X X X X X X X X X X X X X X X X X X X X X X X X X .   ",
"4.[ h $ , <   . X o o o o o o o o o o o o o o o o o o o o o o o o o o o o o o o o o o o o o o o o o o o o o o o o o o o o X .   ",
"4.( 6 $ , <   . X o O O O O O O O O O O O O O O O O O O O O O O O O O O O O O O O O O O O O O O O O O O O O O O O O O O o X .   ",
"4.X.r % , ,   . X o O O O O O O O O O O O O O O O O O O O O O O O O O O O O O O O O O O O O O O O O O O O O O O O O O O o X .   ",
"4.| i * , ,   . X o O O O O O O O O O O O O O O O O O O O O O O O O O O O O O O O O O O O O O O O O O O O O O O O O O O o X .   ",
"4.+.r & , ,   . X o O O O O O O O O O O O O O O O O O O O O O O O O O O O O O O O O O O O O O O O O O O O O O O O O O O o X .   ",
"4. .s $ , ,   . X o O O O O O O O O O O O O O O O O O O O O O O O O O O O O O O O O O O O O O O O O O O O O O O O O O O o X .   ",
"4.[ r # , ,   . X o O O O O O O O O O O O O O O O O O O O O O O O O O O O O O O O O O O O O O O O O O O O O O O O O O O o X .   ",
"4.#.s @ , ,   . X o o o o o o o o o o o o o o o o o o o o o o o o o o o o o o o o o o o o o o o o o o o o o o o o o o o o X .   ",
"4.*.x & , ,   . X X X X X X X X X X X X X X X X X X X X X X X X X X X X X X X X X X X X X X X X X X X X X X X X X X X X X X .   ",
"4.+.N % , ,   . . . . . . . . . . . . . . . . . . . . . . . . . . . . . . . . . . . . . . . . . . . . . . . . . . . . . . . .   ",
"4.3.! * , ,                                                                                                                     ",
"4.E 0 * , , < 2 2 3 7 7 8 8 w e e d f f j k k m m M V V C J J K P P I Q I P P K J J C V V M m m k k j f f d e e w 8 8 7 7 3 2 2 ",
"4.R 4 $ , ,                                                                                                                     ",
"4.L 1 & , ,   . . . . . . . . . . . . . . . . . . . . . . . . . . . . . . . . . . . . . . . . . . . . . . . . . . . . . . . .   ",
"4.T 1 $ , ,   . X X X X X X X X X X X X X X X X X X X X X X X X X X X X X X X X X X X X X X X X X X X X X X X X X X X X X X .   ",
"4.W 5 # , ,   . X o o o o o o o o o o o o o o o o o o o o o o o o o o o o o o o o o o o o o o o o o o o o o o o o o o o o X .   ",
"4.#.y * , ,   . X o O O O O O O O O O O O O O O O O O O O O O O O O O O O O O O O O O O O O O O O O O O O O O O O O O O o X .   ",
"4.' y & , ,   . X o O O O O O O O O O O O O O O O O O O O O O O O O O O O O O O O O O O O O O O O O O O O O O O O O O O o X .   ",
"4.] z # , ,   . X o O O O O O O O O O O O O O O O O O O O O O O O O O O O O O O O O O O O O O O O O O O O O O O O O O O o X .   ",
"4.} i & , ,   . X o O O O O O O O O O O O O O O O O O O O O O O O O O O O O O O O O O O O O O O O O O O O O O O O O O O o X .   ",
"4.+.u % , ,   . X o O O O O O O O O O O O O O O O O O O O O O O O O O O O O O O O O O O O O O O O O O O O O O O O O O O o X .   ",
"4.[ z $ , ,   . X o O O O O O O O O O O O O O O O O O O O O O O O O O O O O O O O O O O O O O O O O O O O O O O O O O O o X .   ",
"4.W 5 % , ,   . X o o o o o o o o o o o o o o o o o o o o o o o o o o o o o o o o o o o o o o o o o o o o o o o o o o o o X .   ",
"4.` s # , ,   . X X X X X X X X X X X X X X X X X X X X X X X X X X X X X X X X X X X X X X X X X X X X X X X X X X X X X X .   ",
"4.=.Z $ , ,   . . . . . . . . . . . . . . . . . . . . . . . . . . . . . . . . . . . . . . . . . . . . . . . . . . . . . . . .   ",
"4.=.D & , ,                                                                                                                     ",
"4.) y ; , , < < 2 3 3 7 8 8 w e e d d f j j j j j j j j j j j j j j j j j j j j j j j j j j j j j j j f f d d e w w 8 7 7 3 2 2 ",
"4.&.G * , ,                                                                                                                     ",
"4.-.G $ , ,   . . . . . . . . . . . . . . . . . . . . . . . . . . . . . . . . . . . . . . . . . . . . . . . . . . . . . . . .   ",
"4.*.G # , ,   . X X X X X X X X X X X X X X X X X X X X X X X X X X X X X X X X X X X X X X X X X X X X X X X X X X X X X X .   ",
"4...N $ , ,   . X o o o o o o o o o o o o o o o o o o o o o o o o o o o o o o o o o o o o o o o o o o o o o o o o o o o o X .   ",
"4.<.U @ > ,   . X o O O O O O O O O O O O O O O O O O O O O O O O O O O O O O O O O O O O O O O O O O O O O O O O O O O o X .   ",
"4.&.G $ > ,   . X o O O O O O O O O O O O O O O O O O O O O O O O O O O O O O O O O O O O O O O O O O O O O O O O O O O o X .   ",
"4.$.n % > ,   . X o O O O O O O O O O O O O O O O O O O O O O O O O O O O O O O O O O O O O O O O O O O O O O O O O O O o X .   ",
"4.>.U & > ,   . X o O O O O O O O O O O O O O O O O O O O O O O O O O O O O O O O O O O O O O O O O O O O O O O O O O O o X .   ",
"4.;.S % > ,   . X o O O O O O O O O O O O O O O O O O O O O O O O O O O O O O O O O O O O O O O O O O O O O O O O O O O o X .   ",
"4.=.l * > ,   . X o O O O O O O O O O O O O O O O O O O O O O O O O O O O O O O O O O O O O O O O O O O O O O O O O O O o X .   ",
"4.,.9 @ > ,   . X o o o o o o o o o o o o o o o o o o o o o o o o o o o o o o o o o o o o o o o o o o o o o o o o o o o o X .   ",
"4.:.p $ > ,   . X X X X X X X X X X X X X X X X X X X X X X X X X X X X X X X X X X X X X X X X X X X X X X X X X X X X X X .   ",
"4.1.N # > ,   . . . . . . . . . . . . . . . . . . . . . . . . . . . . . . . . . . . . . . . . . . . . . . . . . . . . . . . .   ",
"4.2.B & > ,                                                                                                                     ",
"4.:.b & > , < < < < < < < < < < < < < < < < < < < < , , , , , , , , , , , , , , , , , , , , , , , , , , , , , , , , , , , , , , ",
"4.q g # * * & - # & $ % * * * % = % = = & % = + # & & % * : + & @ % # $ $ % % % & @ $ = # & % % @ # # # # $ * ; % # $ $ & & * @ "
};
