/* XPM */
static char *e0e86ec870524755d6043d361e338b21UOA145BARPR73zex[] = {
/* columns rows colors chars-per-pixel */
"64 64 255 2 ",
"   c #3A1A1E",
".  c #3B1E22",
"X  c #2B262A",
"o  c #2D292C",
"O  c #2B2426",
"+  c #332C2C",
"@  c #3B2D2C",
"#  c #372625",
"$  c #39322F",
"%  c #2F2D32",
"&  c #322E32",
"*  c #392F30",
"=  c #353234",
"-  c #3B3434",
";  c #3A363A",
":  c #3D393B",
">  c #383637",
",  c #3B231F",
"<  c #442A2D",
"1  c #4B2B2E",
"2  c #452428",
"3  c #45332C",
"4  c #4D2E30",
"5  c #453433",
"6  c #4A3533",
"7  c #44353B",
"8  c #433D3C",
"9  c #493A38",
"0  c #523333",
"q  c #533C34",
"w  c #533C3B",
"e  c #5A3C39",
"r  c #4B2829",
"t  c #4B413D",
"y  c #46413D",
"u  c #54433D",
"i  c #5D443D",
"p  c #594639",
"a  c #65473B",
"s  c #3F3D40",
"d  c #433E41",
"f  c #4C3C42",
"g  c #553C42",
"h  c #464243",
"j  c #4C4543",
"k  c #4C4A4C",
"l  c #4C4748",
"z  c #534443",
"x  c #5C4543",
"c  c #544A44",
"v  c #5B4B44",
"b  c #544C4B",
"n  c #5A4C4C",
"m  c #5A4549",
"M  c #55514D",
"N  c #5B514C",
"B  c #5B544A",
"V  c #534E51",
"C  c #5C4E53",
"Z  c #565354",
"A  c #5B5453",
"S  c #5C5956",
"D  c #565558",
"F  c #5B5459",
"G  c #5C5B5B",
"H  c #57585A",
"J  c #4F4E51",
"K  c #634442",
"L  c #634C44",
"P  c #624E4A",
"I  c #694B46",
"U  c #6B5345",
"Y  c #64534C",
"T  c #6B534C",
"R  c #655549",
"E  c #73554B",
"W  c #745A4D",
"Q  c #7B5C4D",
"!  c #775348",
"~  c #645453",
"^  c #6B5553",
"/  c #635A55",
"(  c #6C5A54",
")  c #635C5B",
"_  c #6B5C5A",
"`  c #65555A",
"'  c #745B53",
"]  c #7B5C53",
"[  c #735D59",
"{  c #7B5E5A",
"}  c #7C5459",
"|  c #714C4E",
" . c #5F605B",
".. c #63615D",
"X. c #6B625C",
"o. c #6A6357",
"O. c #7C6256",
"+. c #75635D",
"@. c #7C635B",
"#. c #76665A",
"$. c #665C62",
"%. c #785F61",
"&. c #646262",
"*. c #6C6462",
"=. c #6C6A67",
"-. c #736563",
";. c #7B6661",
":. c #756A64",
">. c #7C6B64",
",. c #756C6A",
"<. c #7C6D6B",
"1. c #74666C",
"2. c #79726B",
"3. c #7C7472",
"4. c #7C7D75",
"5. c #7D7C7B",
"6. c #757470",
"7. c #7F6E74",
"8. c #825C4D",
"9. c #825D53",
"0. c #82545B",
"q. c #85585D",
"w. c #804E55",
"e. c #85614F",
"r. c #836254",
"t. c #8A6453",
"y. c #83645B",
"u. c #89645A",
"i. c #8B6B5B",
"p. c #87695A",
"a. c #926D5B",
"s. c #956A5B",
"d. c #94715E",
"f. c #8F705E",
"g. c #8C5C63",
"h. c #875B63",
"j. c #836562",
"k. c #836B64",
"l. c #8A6C65",
"z. c #856E6A",
"x. c #8B6E69",
"c. c #8C6366",
"v. c #936969",
"b. c #837466",
"n. c #8C7165",
"m. c #84746B",
"M. c #8C726B",
"N. c #85796A",
"B. c #8A7B6D",
"V. c #947363",
"C. c #9A7463",
"Z. c #92746B",
"A. c #93796D",
"S. c #9B796B",
"D. c #847B73",
"F. c #8D7C73",
"G. c #837D7A",
"H. c #887876",
"J. c #947B73",
"K. c #9B7D74",
"L. c #957975",
"P. c #996B71",
"I. c #A27B6B",
"U. c #A77A6A",
"Y. c #A57E72",
"T. c #82827D",
"R. c #8C8379",
"E. c #948375",
"W. c #94847A",
"Q. c #9D8A7B",
"!. c #988679",
"~. c #928471",
"^. c #A8836D",
"/. c #A48274",
"(. c #AC8373",
"). c #A38C7C",
"_. c #A8877B",
"`. c #B48B7A",
"'. c #B48777",
"]. c #B7917E",
"[. c #A6917E",
"{. c #917E82",
"}. c #868682",
"|. c #8A8682",
" X c #8C8B85",
".X c #8A8B87",
"XX c #948B84",
"oX c #9A8E84",
"OX c #958C88",
"+X c #94938B",
"@X c #9A948C",
"#X c #989488",
"$X c #999691",
"%X c #9C9B94",
"&X c #969693",
"*X c #8F9089",
"=X c #A78D82",
"-X c #A59383",
";X c #AB9483",
":X c #A39A8E",
">X c #A9988B",
",X c #B69686",
"<X c #A39D94",
"1X c #A69E96",
"2X c #B7998F",
"3X c #9EA199",
"4X c #B2A38E",
"5X c #A4A295",
"6X c #A4A39B",
"7X c #ABA59A",
"8X c #ACAA9D",
"9X c #ABA396",
"0X c #B3A493",
"qX c #B3AA9B",
"wX c #B9A999",
"eX c #B6A896",
"rX c #9FA1A0",
"tX c #ACAAA3",
"yX c #A9AAA5",
"uX c #B3ADA3",
"iX c #B5ADA6",
"pX c #BCB2A5",
"aX c #B4B3AB",
"sX c #BCB9AD",
"dX c #B6B3A7",
"fX c #BDBBB2",
"gX c #B8B9B7",
"hX c #AFB0AB",
"jX c #C39786",
"kX c #C4BAAC",
"lX c #C3B6A8",
"zX c #C4BDB2",
"xX c #C9BCB2",
"cX c #D3BCB2",
"vX c #C1B59F",
"bX c #CAC4B9",
"nX c #D2CABD",
"mX c #DACDBC",
"MX c #D3C5B7",
"NX c #CDC0AE",
"BX c #E1D2BF",
"VX c #CAC8C2",
"CX c #D7CCC2",
"ZX c #DCD2C4",
"AX c #DCD5C9",
"SX c #D9D4D0",
"DX c #E3DBCD",
"FX c #E6D7C7",
"GX c #E5DDD2",
"HX c #E1CFC6",
"JX c #EBE3D6",
"KX c #F3E4D3",
"LX c #F9E9DB",
"PX c #EEE0CD",
"IX c #FFEDE0",
/* pixels */
"5.5.5.5.5.G.G.G.T.}.5..X}..XOX*XOX}.#X+XOX+X$XOX*X+X&X&X%X&X&X%X@X+X X+X*X+X3XR.+X*X#X3X%X%X3X5X3X3X5X5X5X+X3X8X5X8XDXJX8XQ.4.4.",
"5.5.5.5.T.T.}.}. X.X}.&X*X}.7X X+X+X@X%X%X@X%XyXyX%X$X.XT.5.T. X&X%XyXtX%X%X8X#X3X8X8X5X8X5X8XdX8XsXdXdXdX8X8XdXsXdXDXnX8X[.N.4.",
"*X&X&X&X%X3X3X8XyXyXyXyXhXaX$XtXtXfXfXfXbXzXyX}.6.6.=.=. .G S H G =.6.T.3X+X3XsX8XfXsXfXbXbXfXsXfXsXsXfXbX8XsXbXdX5XDXDXsX5X#.N.",
"&X&X%X&X%X3X3X3X%X%XyX%X1X&X X<X%X1X6X$X}.6.&.H H S S S G G ....G H Z M Z  .&.4.T.+X+X#X#X#X3X5X3X5X3X8X5X#X5X5X5X8XDXDX8X~.N.N.",
"5.5.4.4.4.4.4.T.}..X.X.X}.}.%X}..X=. .H H G &.G ..$.&.&.H H H  . .H  .H S S M M G 2. X3X6X6XtX6X5X8X8X8XdX3X5X8XdXsXDXnX8XQ.2.N.",
".X.X*X&X+X3X3X3X3X3XrXhXyXyX+X3X}.&...=...H ..&.H H G G G H H H H Z Z Z H H M  .S M S 2.+XsXVXnXbXAXbXnXAXsXsXAXsX8XDXAXNX[.N.N.",
"%X3X3X3X6X8X8XyXhXyXyX3XhX6X}.=.G  .&.&. .&.&.D  .G H H H H H H H H  .Z M S  .M A A G M S X.T.5X+X3XtX8X8X5X5XdX8X5XJXAXdXQ.N.N.",
"5.5.4.4.4.T.T.T.T..X}..X.X6.A ..&.&. .G  . .G G H  .H G H H H H D S H Z H M J M M b B M A M M ..o.o.#X8X3X3X5X8X5XsXJXnX5X~.b.N.",
"}.}..X.X*X*X%X&X&XrXrX.X6.&.&.&..... . . . . .G G H H H H Z Z Z Z Z Z Z A b b n c M v b B B B B  .o.4.sXbX3XsXbXbXsXDXAXsX~.4.N.",
"yXhXyXyXgXhXyXgXgXgXyX=.H =.H &....... .S G ..H H S A H Z Z Z Z Z n n M M M N N N N B B B B c B B B 2.5X%X3XaXsX5X8XJXAXkX~.N.N.",
"{.5..X}.}.}..X.X&X5.&.&.=.) ) X.X.......) G G A A S Z N Z M Z M M M N A R Y Y R R R R T R a B p p B  .B 4.R.3X8X5XsXJXbX5X~.2.~.",
"}.}.}..X+X}.&X&X&X}.=. .*.X._ ) X./ / / ../ / A S B A A N M n M Y B T T ( ( o.( [ o.Q #.Q o.R a p B p B o.5XsXbXsXsXGXnXvX~.#.b.",
"yXhXhXhXzXzXVXVXVXOXS *._ ~ <.>.X.+.X._ ^ / ) ^ / ~ A ~ n n n Y Y R ( W o.Q O.O.r.O.O.p.O.O.O.#.B p B B B 4.8XbX8XhXJXAXsX~.N.N.",
"*X*X&X.X+X$X&X%X.XS *.-./ z.J.F.<.#.#.#.X.[ _ ^ ^ T ~ Y ~ P N Y T E W W Q O.e.O.t.p.p.p.i.i.p.p.2.p B p p c 4.7X8XfXJXbX9X~.N.N.",
"T.R.}.|.@X X X$X3.*.) / ,.L.E.F.B.z.;.;.@.[ ' ^ ' ^ ( ^ ^ P ^ ^ W Q ] Q Q Q e.e.t.t.a.a.a.a.a.f.b.@.B p M B u :.dXzXGXNXqX~.N.N.",
"tXaXtXhXyXdXVX XG ` _ :.F.!.W.J.M.M.b.y.@.@.@.[ [ ' ' [ ' ^ W ' W Q Q e.8.e.t.t.e.a.a.a.a.d.d.d.A.N.#.p p c c b R.zXGXZXNX~.>.~.",
"6X1X6XyX&XrXhX$.) X._ >.J.K./.M.Z.A.L.A.Z.x.l.y.{ y.{ 9.] ] ] 9.9.9.9.8.8.e.e.t.i.t.f.d.f.C.^.C.C.V.r.R p t t y 4.nXJXNX9X~.B.b.",
"|. X|.4.*X*X&.$.*._ #.M.K.L.x.A.B.A.E.K.!.A.M.l.j.y.y.9.u.u.u.u.u.8.8.t.e.t.a.i.i.d.d.f.d.d.d.d.I.d.f.U p B B M o.sXJXlXeXN.b.B.",
"%X7XyXyXgX*XG =./ ) _ b.M.M.!.M.A.J.).).J.M.@.@.] O.] { y.u.9.9.t.r.u.p.y.t.p.p.i.i.d.d.C.C.V.S.a.~.f.U p p M y y 9XJXBXMXm.b.F.",
"uXuXtXaXaX=.G A / A +.<.J.E.A.A.!.E.B.>.+.( T T ' [ [ ] { y.y.y.y.r.O.O.y.@.] ' Q a U Q O.O.f.f.C./.n.W B u t k y T.LXbXeX~.b.m.",
" XR. X.X}.G &...) X.+.#.F.F.J.!.b.#.T v c v v v Y Y ( #.@.@.O.O.O.y.y.O.( ^ I i p p q q a U E r.S.V.d.#.p B M c t o.DXkX>XN.B.B.",
"7X5XuXaX.X..&.G ) ) -.D.oXW.F._ Y Y N B N n n b z m Y ^ [ O.' E ] T ' @.L w u x p B v a a p p a W n.~.~.R p B k y o.AXFXkXN.E.B.",
"bXkXzXVX.X .&.&.G S D.2.:.( B Y / ) X.*.$.) ) ` ^ A n z q q q p q u q 3 z ^ %.` ~ ~ +.;.[ O.O.W p p a O.o.p p t t X.JXnXpX~.B.B.",
"W.#X+X+X6. .&. .A D.7.v / N Y X.*._ $.$.&.$.G A V n A n v v P R a L p v %._ m ~ ` ` _ ( ( [ O.@.U 3 a p p o.B t j N nXlX4X2.F.J.",
"6X5X6XiX}.$.$.) ) ,.<.-.^ N _ -._ *.$.$.$.$.F V F f V F z x T @.o.a q P _ m n C C m m ` [ [ @.@.d.a q a #.R p p B t kXmXpXN.!.B.",
"bXnXVXSXaX) ) G ) 2.m.XX:.v <.-.*.` F F F F F D V F F g v w +.j.n.L q W P P C ` C C g K P | W K.).U p ).[.R p p t #.AXDXNXN.~.~.",
"#X<X<XyX*X=.X.*.1.OXoXL.z._ #.( ` $.-.$.$.$.$.F F C g $.u I x.Z././.a T h.[ ~ ` C ^ P ^ j.z.j.l.^.a d.~.[.#.p p p :XLXMX4XR.B.E.",
"7X<X6X7XiXG._ ,.[ L.>XXXK.k.P z.k.z.-.1.1.$.F ` $.` H.$.P y.l.Z.S._.A.e M.z.[ %.%.` z.M.Z.K.L.Y.p.a ^.[.^.~.a a v 9XKXmXeX~.~.E.",
"nXAXnXCXGX+X) :.-.oX2X=X=X=Xx.T z.H.m.1.7.1.$.H.z.{.` i j.x.Z.S.Y.Y.jX0.K _.K.L.H.x.x.M.v.K./.8.a (.(.^.^.^.a U #.MXPXPXpX~.!.~.",
"<XuX7XdXuX<X<.#.[ _.2X2X;X=X;X!.{ x.L.L.H.F.{.H.1.C m j.Z._.Y.s.U.U.Y.Y.} e z.P.K.x.P.Z.l.u.8.8.^.^.^.^.`.`.U a O.BXPXMX4X~.~.!.",
"7X@XqX8XuXuXF.#.@._.2X;X`.,X2XjX2XL.k.@.%.^ ~ P C C h.x._._.(.U.U.'.Y.jXI.9.E | | Q ! 9.9.s.^.`.'.].].].^.`.Q a b.FXKXmX4X~.~.[.",
"MXZXnXCXCXnXW.z.#.).;X;X;X,X,X2X=X_.L.x.z.z.k.<.h.c.L.=X=X_.I.C.U.'.'.'.Y.I.u.Z.C.P.L.Y.Y.'.'.'.`.`.^.^.`.^.Q a f.PXDXPXvX~.Q.!.",
"sXpXsXlXzX7XF.-.@.R.=X=X!.=X=X/.S.A.Z.x.x.x.l.l.| Z.=XL.Z.M.V.Z.U.U.jX'.jX'.s.s.s.U.I.U.(.Y.].`.(.^.I.^._.E.O.p ' 4XNXMX4X~.~.).",
"9X9XqX7X<XXXm.;.-.H.L.J.!.E.F.J.M.V.n.n.M.l.@.' +.j.[ I I W { y.P.s.U.t.8.U.U.s.s.C.U.U.(.'.^.d.C.d.f.f.B.@.U p #.:XMXNXeXQ.).Q.",
"MXnXAXnXpX<XXX>.:.>.m.H.M.z.b.z.z.p.k.l.M.x.;.{ { { ' | | [ [ { s.s.v.C.U.Y.U.s.t.t.C.S.C.C.U.C.i.p.f.p.#.R v c o.kX9XBXwX~.Q.[.",
"kXzXxXlX1XoXXX:.:.;.<.m.;.:.z.@.j.;.;.k.z.z.l.@.;.@.' I x a I | a a a w.P.Y.'.U.v.9.u.V.a.a.t.a.p.y.y.o.T L v p #.Q.oXvX4XQ.Q.[.",
"qXuX7X9XOXH.D.,.:.<.<.:.-.@.+.:.#.#.>.z.;.@.#.^ T x i x a x K K a e a a a w.s.9.v.u.8.9.9.8.u.9.O.( ' Y v v c c o.2.!.1X-X!.[.).",
"AXGXSXbXpX1XXX3.2.-.*.=.X.X.X.X._ +.>.:._ T P P ^ T T | K I ' y.j.! | ] e.t.9.! I ! Q p.O.U W W T L Y v z j z M +.B.#X0XwX!.>XoX",
"CXZXCXuX1X<X|.,.3.) *.-.) _ *./ _ [ :.;.T Y Y x P I K L T ' ] } ] u.9.9.8.8.8.! a a L ] ] T U W R v c m z j z N 3.9XkXZX0XE.-X[.",
"iXqXiX<X|.G.H.2.=.-.=.X.) / ) / _ -.:.;.^ ^ ^ I T ' y.y.j.l.x.Z.C.S.Y.U.U.s.w.a a a I T ' W R P p j z t j m b c ^ :XpXwX-X-X-X-X",
"HXCXnXpXXX|.{.3.1.,.&.) ) G S ) _ -.;.+.( [ ;.j.x.M.Z.l.l.l.y.u.v.U.U.'.jX].'.I.y.] K Y T P Y v u y l u j j b X.o.T.!.pX4XQ.[.[.",
"FXDXGXCX1XF.G.5.=.=.&.) ) G A / / _ _ _ #.>.x.z.Z.x.x.c.{ E I ! ! 8.d.(.`.jX].`./.y.a P Y Y v u y y y j h c A B o.Q.eXvXeX[.Q.4X",
"pXxXlXzX7XH.G.1.=.*.) ) ) G S ) ) ~ ~ ( [ >.z.z.x.x.Z.k.' | T ! 8.8.U.^.].,X,X,XY.y.Y v z t u 9 9 u j y y t N o.:.#XwXpX>X>X[.[.",
"CXmXCXMXpX:X|.G.1.=.*.&.$.G S G ~ A ~ ~ _ +.>.l.F.M.A.M.@.{ @.{ u.V.^.'.`.].`._.A.' v u w j y y y c y y c l M X.#.R.eXmXeX[.].[.",
"KXKXFXZXMXuX$XH.,.=.=.&.) G S A V n N A ~ ( +.;.;.#.+.+.( ^ ^ ' y.l.S.S././.S.n.@.P v u 8 j y 8 : t y t t y o.#.R -XBXPX4X[.[.].",
"MXNXMXlX<XoXH.XX,.1.=.) G S A Z S A A N N ~ ) ( _ ^ ^ T Y Y Y B T [ k.@.k.p.r.T Y u z z 8 y y y y 9 y y k N b B :.~.vXBX4X].[.4X",
"mXBXHXmXlX:XXXD.<.:.=.) S S A Z V b M l M N ~ N n N n c z m l t z P Y T R ' U P v u 8 8 z k y - 8 8 t : A ,.2.3XQ.dXFXKX4X[.4X].",
"KXKXKXFXxX9XOXH.,.,.*.) S F S Z M J J k l l m j c t z j l j : h t j z w u z z u 9 9 y 8 h 8 : - $ 8 - j B A 3.Q.:XDXLXLXeX[.[.4X",
"mXMXBXnXxX1X=X{.H.,.*.X.) C V F J J k h k k d k l d d h s s s > : : 8 y y 9 8 y y : > > > > : : 8 - 8 y b M ) XX:XZXLXFX4X-X-X4X",
"mXmXmXNXxXxXiX$XXX$.$.) F S F b k k k h h h s h s s s s s s % s : : y s : : > : : : : > > $ > : $ 8 : 8 j j -.OX<XmXKXFX4X).-X>X",
"LXKXKXJXHXcXxX1XOX3.$.) G Z V F k l h h h h s d s ; ; ; s % % % = ; : - : > > % > : : $ & > > & > > - 8 M :.:.X.#XmXLXKX4X[.-X[.",
"mXBXFXFXMXcXxX@XD.{.$.S $.V V V k l h h s s s s s ; ; ; s % % s & & > $ > $ $ & > $ & $ > & + + + $ y t y / 3.;.Q.KXKXFX4X).>X;X",
"BXFXHXFXFXcXiX>X@XG.) G F J Z k k f h h 7 d d d ; ; s % % % % % o o & % = % $ $ $ % & = & o + $ $ y : y B B -.iXlXBXKXFXQ.,X).).",
"IXLXLXLXLXLXHXiX@X,._ ` b Z D k k h h y ; ; s = = = % > > % % % % X % o % o o % X $ $ o o $ $ o + y : p X.2.oX:X2XLXLXLX;XQ.Q.;X",
";XK.2XcXcXcX1XH.%.[ _ V V H J h h h d d d ; s % > % % % % % X % o X o o o X o o o o O o + & o + $ $ $ $ M / b.:XxXLXFXcX_.=X;X/.",
"l.Z.v.x.P.j.| ;.;.%.` ~ A k k k h d 7 d d ; s % > > % % s % X X X X o X X X o o X o o o O O + $ $ $ 8 + - y 3 ^ F.W I i a W M.L.",
"P.K.P.Z.z.q.h.%.%.%.C ` P V V m f d s s s s % s ; = = = & % X X X X O X o o o X O X X X X X o $ + 5 * + * 4 g 4 0 0 0 e 0 e K K ",
"v.Z.v.c.q.} h.h.c.h.} m g g V f f d d d s s s s % = = o X & & + O o + o o O o o X O O X o X + + * * * & 4 7 4 g w 0 0 K a K e 4 ",
"P.P.P.v.v.c.g.P.h.c.h.P m m g f f f d d % & & & & & = * + + + X + # O O O O X X O O O O + + + + * # * . . 7 f 1 0 4 0 0 4 4 0 4 ",
"v.P.c.v.P.v.g.P.v.c.h.| K m m f g d d d s & d < * * @ # @ @ 3 3 5 - 3 $ @ + + O O O + O + + + + # @ * . < < 1 4 4 1 4 4 4 4 1 1 ",
"g.h.g.g.h.0.g.g.g.g.h.} K K g g f 7 7 d 7 * - @ * 7 9 5 < 3 u u u q q 4 < # # @ # + + + + + @ $ @ 5 g < 2 1 2 2 r r 4 1 4 1 1 2 ",
"g.h.h.h.h.w.0.w.w.w.g.h.} m g f g 7 7 < 5 5 7 6 0 g v v v a i i a a p q 6 3 @ # # # # # , # @ 3 w x w # 1 r . 2 1 2 2 2 2 2 2 . ",
"g.0.} } h.0.0.w.w.g.h.0.| K g g f 7 7 5 < 7 u n v x i R T W W E U U U I a p q 3 3 3 $ $ $ 3 3 t e 2 # 2 r .   r 2 r 2 2 < < . . ",
"P.h.} 0.w.w.g.w.g.g.h.w.| | | g g 7 4 5 < @ 6 u L R I U E Q Q ! Q ! a a e p q p p t 3 3 3 3 3 6 3 , # 2 2         2 2 2 2 . . . "
};
