/* XPM */
static char *_eaa9ab3cd9d43d8fa3e3fbd2efffa77o9h1Ms345YS7cjYm[] = {
/* columns rows colors chars-per-pixel */
"64 64 243 2 ",
"   c #382B1B",
".  c #2A241C",
"X  c #2C2D2B",
"o  c #292925",
"O  c #362D27",
"+  c #2F312D",
"@  c #3B3324",
"#  c #34322D",
"$  c #3B342C",
"%  c #3A3629",
"&  c #2D2E31",
"*  c #2F3233",
"=  c #333434",
"-  c #3B3531",
";  c #363934",
":  c #3B3B35",
">  c #363A3B",
",  c #3B3D3B",
"<  c #353639",
"1  c #2E1D0B",
"2  c #44311C",
"3  c #462322",
"4  c #4A2A29",
"5  c #522E2C",
"6  c #443525",
"7  c #42362C",
"8  c #4B3B2C",
"9  c #46372C",
"0  c #55342C",
"q  c #433C34",
"w  c #4B3C34",
"e  c #423D39",
"r  c #483732",
"t  c #533433",
"y  c #5B3C36",
"u  c #522F26",
"i  c #3E413D",
"p  c #3F4136",
"a  c #4C4236",
"s  c #43423D",
"d  c #4B443B",
"f  c #45453A",
"g  c #534334",
"h  c #52453B",
"j  c #5B4B3D",
"k  c #57473A",
"l  c #57432C",
"z  c #664A39",
"x  c #71523B",
"c  c #3A3E41",
"v  c #373E41",
"b  c #3E4243",
"n  c #3F474A",
"m  c #434444",
"M  c #4A4543",
"N  c #4C4A45",
"B  c #434648",
"V  c #454A4C",
"C  c #4B4C4B",
"Z  c #494846",
"A  c #534B43",
"S  c #5B4D43",
"D  c #534C4B",
"F  c #574A4A",
"G  c #4B504D",
"H  c #5C5145",
"J  c #54524C",
"K  c #5C544C",
"L  c #59584A",
"P  c #464F50",
"I  c #4B4E51",
"U  c #4E4E58",
"Y  c #574E50",
"T  c #4C5253",
"R  c #4B5456",
"E  c #535453",
"W  c #5A5553",
"Q  c #5C5A54",
"!  c #54565A",
"~  c #555A5B",
"^  c #5B5B5B",
"/  c #575958",
"(  c #624E45",
")  c #655344",
"_  c #63554B",
"`  c #6C5B4B",
"'  c #685748",
"]  c #765A49",
"[  c #625553",
"{  c #695454",
"}  c #635B54",
"|  c #6C5C53",
" . c #645E5A",
".. c #6B5E5A",
"X. c #755B59",
"o. c #624F51",
"O. c #5C615A",
"+. c #79624D",
"@. c #6C6255",
"#. c #64625B",
"$. c #6B645C",
"%. c #6A675B",
"&. c #746354",
"*. c #7B6553",
"=. c #73645D",
"-. c #7B665A",
";. c #7B6A5C",
":. c #786A59",
">. c #746A57",
",. c #5D5D63",
"<. c #575862",
"1. c #665E65",
"2. c #5D6162",
"3. c #646363",
"4. c #6B6562",
"5. c #6C6A65",
"6. c #6C6B6B",
"7. c #666569",
"8. c #736C63",
"9. c #7B6C63",
"0. c #776765",
"q. c #6D726A",
"w. c #73746C",
"e. c #7C746C",
"r. c #787466",
"t. c #797975",
"y. c #736F72",
"u. c #805D54",
"i. c #866B58",
"p. c #8B725B",
"a. c #87715A",
"s. c #96765B",
"d. c #8A674F",
"f. c #856A66",
"g. c #95696A",
"h. c #847163",
"j. c #8B7363",
"k. c #8B746B",
"l. c #8C7C6B",
"z. c #867869",
"x. c #937563",
"c. c #947A64",
"v. c #937C6B",
"b. c #9A7D6A",
"n. c #9A7A65",
"m. c #877A74",
"M. c #957A72",
"N. c #916F71",
"B. c #A17D65",
"V. c #7C837D",
"C. c #8C826C",
"Z. c #8C896B",
"A. c #9B826C",
"S. c #94866C",
"D. c #8D8472",
"F. c #888579",
"G. c #948373",
"H. c #9C8373",
"J. c #948C74",
"K. c #9B8D75",
"L. c #988B7B",
"P. c #9D927B",
"I. c #9A9277",
"U. c #8B907C",
"Y. c #A4836C",
"T. c #A9866A",
"R. c #B38A6B",
"E. c #B8916E",
"W. c #A28572",
"Q. c #AC8B73",
"!. c #A78A76",
"~. c #B28C76",
"^. c #A3947C",
"/. c #AC937D",
"(. c #AB977B",
"). c #B89578",
"_. c #C29B78",
"`. c #C5A27D",
"'. c #8C7D82",
"]. c #8A8983",
"[. c #958886",
"{. c #8E928A",
"}. c #989688",
"|. c #9A9D94",
" X c #979A93",
".X c #8F9591",
"XX c #A68E84",
"oX c #A49B83",
"OX c #AC9B83",
"+X c #A79787",
"@X c #B29C84",
"#X c #B99A84",
"$X c #A49D96",
"%X c #B49B97",
"&X c #9CA39A",
"*X c #A6A289",
"=X c #B4A38A",
"-X c #B8A488",
";X c #A3AA9D",
":X c #A7A798",
">X c #B6A898",
",X c #B6B29A",
"<X c #AEB29D",
"1X c #A5ABA2",
"2X c #AAADA3",
"3X c #A7A5A0",
"4X c #ACB1A5",
"5X c #ACB3AA",
"6X c #A9B4A8",
"7X c #B2B5AA",
"8X c #B4BAAD",
"9X c #B9B8A6",
"0X c #B4BCB3",
"qX c #BBBDB2",
"wX c #B4ACA3",
"eX c #C69D85",
"rX c #D19F86",
"tX c #C8A487",
"yX c #D3A88B",
"uX c #D2AE95",
"iX c #C4BAA7",
"pX c #D1B7A8",
"aX c #E0B69D",
"sX c #BEC1AD",
"dX c #BDC2B4",
"fX c #BAC5BC",
"gX c #C4C5AF",
"hX c #C2C5B3",
"jX c #C4CABB",
"kX c #CBCDBC",
"lX c #C7C8B6",
"zX c #CDD1BB",
"xX c #D4D1BB",
"cX c #BDCAC0",
"vX c #C9CCC2",
"bX c #CED3C4",
"nX c #D6D8C5",
"mX c #D6DCD0",
"MX c #E2D9C6",
"NX c #DDE0D0",
"BX c #E6E5D4",
"VX c #FBFDEB",
"CX c #FDFFF1",
/* pixels */
" X X|.3X;X3X2X2X8XqX8XqXqXsXxXxXsXjXfXjXzXjXzXbXbXbXvXhXsXsXsXfXfXzXfXnXzXsXsXgXzXzXlXzXzXzXzXzXzXsXsXgXdXNXVXjX8X9XU.r.Z.C.p.C.",
";X3X2X2X4X7XqXqXqXqXlXhXlXgX4XsXsXsXsXdXzXdX8X6X2X:X].w.O.R R L %.V.U.V.}.:X<X<X*X<X<X<X<X*XsX<X<X*X<X<X<XzXCXkX:X9XZ.C.C.z.c.C.",
" X X|.|.|.|.&X:X:X2X<X5X<X:XsX8X8X6X8X;XV.#.O.L G f f Z i i p p p p o + G %.V.P.<XsXsXzXzXnXnXsXnXsXgXnXjXmXVXkXgXhXI.z.C.C.C.l.",
"|.;X3X2X5X8X8XfXlXjXdXjXkXbXbXbX4X{.q.O.L G Z G Z i i p i * i n p p p * p p p f q.;XgXfXfXdXsXfXgX<XsXgX9XnXCXzX,X9X}.z.l.l.C.C.",
"2X1X6X1X6X2X7X7X8XdXdXqX8XqX7X{.w./ E J V V C b i i b > > * & * & < > > p i b i p p V.;XsXsXfXsXgXsXsXsXsXnXVXnXiXgX}.C.C.G.C.G.",
" X X X&X&X1X;X<X<X7X7X5XqX2Xt.6.^ T G G Z B b b n b b > > b v v v c c b i p p p % p p f q.|.zXNXzXzXzXNXnXNXVXnXgXlX}.C.C.G.l.G.",
"5X5X5X5X0XdXfXfXjXbXvXmX2X6.6.5.~ C R V i b b b b b b v > b b b v * > < X o o o p @ o p p p O.:XV.U.sXgXsXzXVXBX,XiXoXD.Z.G.D.G.",
"&X&X1X1X1X1X2X<X5X;X:Xt.Q 3.6.E ^ E T Z n n b b i > b b v > b * v v ; o + + . + . . @   p p   d V.L <XzXzXNXVXnXgXgXoXZ.J.K.C.C.",
"&X&X1X&X1X6X2X8X5X}.q.O.L 5.Q ^ Q ~ T Z B m i b v , m , > b > , - - q e f a a l @ a 6 @ 6 @   p p L V.zXjXzXVXnXlXxX^.U.Z.Z.Z.Z.",
"1X1X6X0X0XqXhXqX&Xw.%.Q 5.%...w.W ^ E N B m m m b , , > > , c e e F ( ' @.+.>.>.*.` ` ` z 6 @ 6 @ % L }.|.sXVXnXgXgXI.Z.Z.I.Z.Z.",
"1X&X1X1X&X;X5X;XU.w.%.%.} 8.m.Q Q Q W W W W N m N N s s e e M N j @.&.*.d.a.d.s.C.s.S.s.a.a.x 2 @ p f a Z.NXVXnXxXxX-XZ.Z.I.I.Z.",
"1X1X8X8X0XlXvXhX}.8.%.j 8.D.:.=.e.9.8.@.} K K } W K K A d a A _ &.i.a.a.s.A.A.T.Q.T.T.T.A.A.A.a.2   @ a %.kXVXNXzXzX,XZ.I.Z.I.Z.",
"6X0X5X0XqXfXqX8Xe.>.j m.9X=XXXXX[.l.9.:.9.=.@.@.X.| | ) j ( ` -.*.a.p.s.s.Y.T.T.R.R.E.E.E.R.T.(.S.l   l a >.nXBXzXlX:XD.I.Z.(.I.",
"&X1X1X6X3X7XqXm.#.} 8.lXiX>X@XI.H.l.z.z.h.;.;.;.:.&.-.` | -.-.i.s.p.n.n.s.T.T.R.R.E.E.R.).E.E.E._.S.2 @ @ k r.*XxXnX,XJ.Z.Z.S.Z.",
"0X8X0XfXvXvX2X#.#.@.+XpXiX=X@X>XOX^.A.C.l.j.l.j.j.j.j.j.x.x.x.x.c.x.n.B.T.T.B.R.R.E._._.`._.E.`.).-XS.2 6 @   % }.zX>XU.P.^.I.I.",
"1X6X8X4XqX1X4.%.Q P.iX>X=X=X=X=X-X%X@X/.H.H.H.b.H.A.b.A.H.B.b.Y.Y.b.Y.T.T.T.R.R.E.E._._._._.`.`.`.`.R.+.2 @ % @ 8.kX<XJ.J.I.S.^.",
"&X6X6X6X0Xt./ %.9.}.>X>XOXOX(.#X,X,X,X>XXX^.H.H.H.!.!.W.Q.T.W.Q.B.!.Q.T.E.Q.E.).)._.`.`.`._.`.tXtX`._.s.l 2 p @ j lXgXZ.I.I.I.I.",
"fX7XcXbX].~ 5.#.e.[.+X=X@X/.#XiXiXiX>XL.l.v.v.v.b.v.H.(.!.Q.Q.Y.W.T.Y.Q.!.~.Q.(.(.Q.E.).`.tX`._._.tX`.T.x 6   f % V.sXJ.P.I.S.I.",
"1X6X6X.XO.O.3.O.w.F.$X=X+X>XiX>X>XG.9.` | &.:.h.l.z.v.H.S.W.W.W.W.Q.Y.b.W.p.c.a.i.+.] *.j.H.!./.-X).(.(.+.a d % % r.9XZ.I.I.^.K.",
"6XdX6XV.2.2.E 7.0.].$XwXiX>XH.h._ A d A A S K | 0.z.m.G.G.G.H.!.b.Q.A.v.a.&.z g 6 6 8 8 8 g ) +.!.=XuX=Xr.j h f @ L ,XI.I.I.S.^.",
"cXcXfXV.2.2.~ 2.q..X$X}.e.K h A J Q W U J D J D D J  .[ A ` -.| -.` @.j 7 a h S ` _ @.>.*.+.l l 8 ] i.P.l.j a M   f *XoXI.I.I.I.",
"&X&X&X7.7.O.2.O.^ / Z d D #.8...5.4.1.1.7.6.6.3.,.C : : q 7 9 r 9 7 O % } e.t.8.e.z.l.l.l.C.S.!.i.8   6 a a A a % f sXI.K.(.I.^.",
"0XfXfXt.~ ~ 7.O.E J C Q %.#.$.4.5.0.6.y.7.1.,.,.! 1.Y q K 0.-.X.` ( 8 9.f.[ Y { X...=.=.:.a.i.v.L.m.@ w ' @ a q % a ,XP.^.I.K.^.",
"0XfX5Xw.E O.T 2.^ Z N 6.0.4.w.1.1.7.7.7.1.<.<.U U ,.W e M -.k.k.( 6 ( =.S Y [ Y F W ..@.X.9.h.k.M.+X-.1 g &.@   q @ U.*X^.^.(.I.",
"&X6XfX.XO.T E t.}. .W 8.0.y.4.W ^ 1.,.7.,.<.<.U <.2.~ s A f.M.@Xh.3 j =.W W Y C V Y Y 1.0.0.f.m.XX+Xi.2 oX=Xl   @ @.lX^.^.oX^.P.",
"cXcXcX6X3.Q #. X3X|.A 4.$. .4.4.6.7.7.7.,.<.U U 2.7.Q e i.'.XX#X>X>.g f.m.e.7.W F U 1.0.N.m.m.M.G.).l +.uX-X&.l 6 J.nXoXI.P.oXoX",
"1X5XfX6X6.#. .|.3XwXm.H m.F.m.t.y.'.t.y.1.1.1.6.t.m.w ) b.B.#X#XuX%Xg ] %XXX[.f.0.{ u.M.N.M.~.~.uXp.0 `.tX-XA.l j z.xXOX+XoXI.OX",
"0X0X0XcXF.#.$.+X9X:X>XD.} [.XXXX'.'.'.[.'.m.'.].m.w _ M.~.'.B.eXtXpXXXy u.wX%XXXXXM.M.XXM.~.#X#Xd.z -XtXtXuX(.l ' xXBXOXoX^.oXOX",
"cXmXcXmXcX7.#.:XwX+X>XiX%Xh.9.m.'.'.[.[.m.m.0.[ F ..G.K.!.!.~.rXrXrXrX~.y y g.g.b.W.W.W.R.B.d.x d.tXuX`.`.`.(.l ] xXxX=XoX*X(.^.",
"1X6X0X.X2X[.%.}.>X+X+X>X>XXX=.| { 0.{ ..{ o._ | 9.G.H.XX@X).B.eXrXaXrXrX~.] z x z z z x x ] s.#XyXtXE.E.T.E.T.l ) MXBX+XOX^.=X(.",
"fXfXfXcX X5.5.J.L.L.P.+XL.k.M.M.N.k.N.f.f.h.-.9.G.G.XXOX/.B.#X~._.rXaXeXrX~.s.d.d.d.g.B.B._.eXeX-X`.E.T.T.A.a.j k I.lX^.^.=X(.(.",
"0XfX0X1X'.y.%.e.m.C.L.G.h.l.M.l.M.N.k.9.X.X.` M.XXXXH.!.!.Q.B.eXrXrXaXaXpXaX#Xp.u.u.d.B.R.B.R.E.).E.T.S.s.a.+.l k &.r.Z.I.=X(.@X",
";X&X].t.t.3.5.8.r.e.e.9.9.9.h.j.f.f.*.X.X.X.0.z.k.k.k.k.g.n.T.Q.#XrXuXeXB.~.eXB.n.u.x ] d.n.B.B.B.Q.T.a.d.+.x 6 a >.*Xz.P.=X(.@X",
"jX0X|.].t.O. .6.#.5.8.9.8.=.0.0.=.=.=.=.h.9.0.=.4...{ ` ] i.x.n.n.XXB.n.B.#XXXeX!.x.u.z x u.+.a.s.x.c.p.*.` f a a %.Z.>.z.^.-X(.",
"0X:XF.t.5.#.^ 3.O.#.%.#.| @.=.| | ..X...} @.| ..[ K F _ ( ( X.X.{ ] z ] g.B.g.B.x.i.*.) 0 k ) ] +.+.*.+.) j a w % j L ' ;.C.(.-X",
"&X].t.w.O.E ^ ^ O.^ Q } ..5.=.o.W [ W [  ...[ D F M y F ( ' ] ( y z z z z z ] g.i.) j k 8 8 g j ) x ` ) k a a @ f j F.r.@.^.=X(.",
"4X X{.q.3.E / E Q E Q L  .0.5.Y D D A D W [ [ _ ( S S S S ) -.*.u.] z ] ] u.u.d.] ] k 9 a w r H ) j j j a r - - : f 8.C.z.P.*X=X",
"].t.q.O.7.! ^ E G E E Q ^ 0.0...Y } 4.=.| _ _ _ | | | =.i.h.h.i.x.x.g.x.B.s.d.d.p.j.-.( w w a _ H k a 9 q q e a f L %.>.C.^.^.=X",
"V.y.q.3.1.E I C G E E E ^ ..4.5. .5.9.e.h.h.z.M.v.v.G.v.M.H.W.XX~.eXrXyXuXyXyXyX#X~.x.] 8 g A h h d a q q q : $ f Q r.8.&.C.-X=X",
"&XV.q.q.3.<.I E T T T E / W [ 1...4.z.k.l.v.v.b.H.H.W.b.A.Y.n.W.Q.Q._.yXyXyXaXtXtX~.x.) w h h q a : $ $ q - - f N L r.r.:.l.(.=X",
" XV.5.2.O.~ R I I T G G E E W W  .0.9.z.k.v.A.H.b.b.x.i.d.] i.d.d.s.E._.`.uXuXyXtXT.+.j w w q q - # $ q - % - : d K C.C.` Z.-X(.",
"dX X].t.2.~ ! E T R T T E E U Y W [ =.f.h.k.M.A.G.b.h.*.] ] ] i.s.s.E.`.uXyX`.`.(.:.` l 7 q q - - - # e $ O q q L #.:.V.+.I.-X-X",
"dX6X{.V.y.,.,.! R R T R I I I I Y W  .4.h.m.G.G.L.M.l.i.f.f.h.v.K.E.-X_.tX`.E.A.:.x j f r , e = - # # e # O $ q A _ ' ` Z.P.-X`.",
"{.].t.q.6.7.2.U R P P P P P I I I D D W 4.8.9.9.9.9.0.9.9.9.&.h.l.!.(.W.A.S.c.*.` j a p q e , - = X = % # % @ K A _ >.@.>.=X-X=X",
"jX:X.XF.t.7.2.2.R G G P P P I I R I G W  .#.#.@.$. . . .$...[ &.*.a.l.p.j.i.*.` H a d s e e M - X # X X % % f |.J.}.*XZ.K.(.`.`.",
"8X}.].V.,.^ 2.2.R T G P P P I P V C C J J D W Q Q K K W W K D _ _ | | _ ` ' H h f f , s e m m ; X o X # o : A J } z.,X,X(.,X,X-X",
";X|.].t.7.3.,.~ R R P P I P P P V V N C N G D D J J D D A A A A A K H a H K A f f f : p e : ; : # = o X ; O % Q L }.9X,XI.(.-X(.",
"zXzX5X:X|.t.^ E R R P P R P P I P C V V C J G M M C Z C f M A s s N A d N f f p p p : i : ; : + = = = o o O o f J >.U.*XI.(.-X,X",
"4X<X&X{.V.7.! R R R n R R R R R B V V V V P V B B C m m m m e e M e m M m s , f M ; s i % ; # o o X . o o o % N #.L >.J.J.@X=X-X",
"7X4X2X}.t.t.y.R R R ~ R n n n P P V n n P P V B V V B m m m m m , e N f m M i , i , s i ; < X X o o o & + + p L %.%.}.*Xl.^.=X=X",
"BXvX5X$X3X].I ^ R ~ 2.R V P V V P n n B V P m V m m m b m i , i > , M m s m , ; ; i i ; > > X & o o o X ; : : A %.%.Z.+XL.K./.=X",
"3XwX$X].m.7.! ! <.2.~ n P G R n B V V B m c m V m b c e b , , > , > , i , , > > ; ; ; = ; : X X X o * > + o , 5.5.C.}.+XG.XX@X@X",
"vXiXiX3X'.t.7.1.2.O.R R R V V V B V V m b b b b b c c c , , > > > = < < < = * v > = = * = # & o * X + + + # O : Y m.iXwXj.x.XX!.",
"wXiX3X$X[.y.y.1.R R E R T V m V B B B n b m m c c , > c > < > < < = * = = * * * = & * = & X & X o + + + + , - - O F y k z k 0 ] ",
"1.{ X.0.7.1.1.! R E / T G G Z B V B m n B B b b b , > > < < < * = = = = * < = * * & & * & & & & X X + , # O o O O r t y z y 0 5 ",
"0.X.0.f.f.1...W / ~ G R R G G Z B B B Z m n b m b b c , < > , < > = * * = = = = < < & o X & & o + = * + o # $ 7 7 t z y 0 0 0 0 ",
"g.X.1.g.'.1.{ 1.W E E I E T D C V n m n b C B m B , c , , > < , ; > = % < < = = < = X X X X & O < & & - - & O O r t y y t 5 t y ",
"g.g.'.g.g.X.{ o.^ ^ E Y E C f V m B C B V Z , , < e , : : , : , : e : : : - = $ O = O = # O = # # - e O O O 3 - t t t t t 5 5 5 ",
"'.g.g.'.X.X.{ o.Y W Y I W U C N C C C c m m : M f , e s q : e : d w - % - - q - $ - e : O X - e O # r = O O O 4 t t r 5 5 5 5 5 ",
"g.X.g.'.g.X.{ o.o.o.U D E Y N N Z C M M m M e s s q r s q w h a a a k k a w w r a q q 7 q - 7 # - O = r r 4 4 w t t 4 4 5 5 5 5 ",
"g.g.g.'.g.X.X.{ o.F F F N V F M N M N N N N N A h _ h w ) ) ) _ ` ' ' ' j j j j j a 7 % $ 7 $ O O O 7 r r t r t 5 5 3 3 4 5 3 3 ",
"g.g.g.g.'.X.{ o.o.F F U M F Y M M N F D H F _ [ ` | ` ` -.-.*.*.a.*.+.*.;.*.` j g d w 9 6 $ $ 7 $ r r r 4 r 5 5 5 3 3 3 3 4 4 3 ",
"g.g.g.g.g.X.X.{ o.F F F F M F m w N A K } ..&.&.&.` -.j.p.x.c.p.s.c.p.d.*.+.+.` ) z g h h h a w w e r r 5 4 5 5 5 3 3 3 3 5 5 3 ",
"g.g.g.g.g.u.X.{ o.o.F F U F F M A M e A @.=.9.h.h.j.M.b.c.A.S.c.c.c.p.i.*.+.` ] ` ' ' ) ) S S h k y r r t t t 5 5 3 3 3 3 3 3 3 "
};
