/* XPM */
static char *result[] = {
/* columns rows colors chars-per-pixel */
"64 64 125 2 ",
"   c #161512",
".  c #191714",
"X  c #1C1A16",
"o  c #1F1C18",
"O  c #211E1A",
"+  c #25221C",
"@  c #29241E",
"#  c #272520",
"$  c #2B2621",
"%  c #2E2923",
"&  c #322D25",
"*  c #342F28",
"=  c #363027",
"-  c #383027",
";  c #363129",
":  c #3B342C",
">  c #3E382E",
",  c #3C3730",
"<  c #3E3931",
"1  c #40372E",
"2  c #41392F",
"3  c #433C33",
"4  c #483F34",
"5  c #464036",
"6  c #4A4136",
"7  c #464139",
"8  c #4C443A",
"9  c #4F483D",
"0  c #504437",
"q  c #51473A",
"w  c #544A3D",
"e  c #594C3E",
"r  c #554C41",
"t  c #594F41",
"y  c #575145",
"u  c #5C5244",
"i  c #5E5549",
"p  c #5F584D",
"a  c #625546",
"s  c #665847",
"d  c #685947",
"f  c #625748",
"g  c #655A4B",
"h  c #6A5D4C",
"j  c #655D51",
"k  c #6A5F51",
"l  c #6F604E",
"z  c #71614E",
"x  c #666054",
"c  c #6D6152",
"v  c #6E6559",
"b  c #736553",
"n  c #786753",
"m  c #766856",
"M  c #7A6A56",
"N  c #736759",
"B  c #746A5B",
"V  c #7B6D5B",
"C  c #7E715E",
"Z  c #766E60",
"A  c #7B6F60",
"S  c #7D7262",
"D  c #7F7668",
"F  c #816E57",
"G  c #826E5A",
"H  c #84725D",
"J  c #8A755E",
"K  c #8C785F",
"L  c #837562",
"P  c #8A7661",
"I  c #867866",
"U  c #8C7A64",
"Y  c #867A6A",
"T  c #8B7C6A",
"R  c #917D65",
"E  c #907F6A",
"W  c #8A7F70",
"Q  c #8E806E",
"!  c #948067",
"~  c #94826B",
"^  c #99866E",
"/  c #9A8A6F",
"(  c #8D8373",
")  c #948672",
"_  c #988770",
"`  c #968975",
"'  c #9C8B73",
"]  c #948C7A",
"[  c #9B8D79",
"{  c #9E917D",
"}  c #A08F76",
"|  c #A08F78",
" . c #A2927C",
".. c #959485",
"X. c #9B9584",
"o. c #9A9986",
"O. c #999789",
"+. c #97988F",
"@. c #9C9B8A",
"#. c #9A9D91",
"$. c #A39582",
"%. c #A69884",
"&. c #AA9A86",
"*. c #A29D8C",
"=. c #AB9D8A",
"-. c #A19F90",
";. c #A89E91",
":. c #A3A08E",
">. c #ADA18E",
",. c #B0A18D",
"<. c #A4A294",
"1. c #AFA292",
"2. c #A7A699",
"3. c #A9A79A",
"4. c #ABAA9D",
"5. c #B3A593",
"6. c #B5A896",
"7. c #B7A998",
"8. c #B9AC9B",
"9. c #99A2A0",
"0. c #ADADA0",
"q. c #AFB0A3",
"w. c #B1B1A4",
"e. c #BCB4A3",
"r. c None",
/* pixels */
"r.r.r.r.r.r.r.r.r.r.r.r.r.r.r.r.r.r.r.r.r.r.r.r.r.r.r.r.r.r.r.r.r.r.r.r.r.r.r.r.r.r.r.r.r.r.r.r.r.r.r.r.r.r.r.r.r.r.r.r.r.r.r.r.",
"r.r.r.R a L $ X : J ! z V 6.U I J M J Q H I T t w ^ h a f r k 3 + & 6 d b 7.! ,.M n t M U [ $.d d F X.P p * % @ y g l N ` 5./ [ ",
"r.r.r. .z m ; + w b _ $.>.8.=.=.&.%.' H ^ ^ Y u f ` ) U h d r * @ ; M G } P ^ $.b 3 f T ) e.H M G m P ' B r % O g V m $.&.^ I B ",
"r.r.r.F d e ; @ q s 9 Y { ~ $.5. .b h L [ P u f h M ' K g h r < O > * g ` | G m 6 a I B $.g u H G T G P V % @ @ u w [ F V c r b ",
"r.r.r.J z 6 @ @ 9 i V r m _ &.1.c b _ N i H _ c g ' ^ J a h g ; + @ # , Y m M V R _ b ] ~ w g P T A | M N & + @ : Q C g s J Y a ",
"r.r.r.F h 0 O O a w Y u L E &.i m m d 5 M  ._ h P { J b h s g ; + ; > : c V L P h x S G q s U m %.L m 4 6 + + % 9 m l P  .J F e ",
"r.r.r.z e u + O f i I f i Q H B ` B 8 h '  .~ V ! { z 6 k u ; * % = & : D c f V b M f r l G u 8.] T f : @ @ + % = L ~ / a ~ d a ",
"r.r.r.h J e @ O a d m h V B j Q c c c z L ' g b ) h d r V 4 4 $ & 8 6 8 Q g g V V s r g F f X.L ! M u > 3 # + + @ m m l m { J 8 ",
"r.r.r.} H e & O 8 c N Y l B W L I V l l I a r r L c q k S k q O & 6 6 0 w c i u g r i P t r b J s 6 w r w + @ & + 8 k u a P 6 w ",
"r.r.r.R d 6 1 - & b V c v x I V b t d I i 6 D m V i w j f H 9 + o + : & 1 A r g 3 m V t 4 4 r g N u 3 j > @ & 3 5 p X.i T u u H ",
"r.r.r.b z 6 ; 3 g g w f V c c f u q Z k w j Z r r j r N k & X X + O O X O + r r S V u 9 w l q Z u u u & & $ : $ 9 j j r u q n m ",
"r.r.r.d w 3 @ @ r c f i 4 q i 8 * 4 u 4 , Y > 3 , * > + . . X O @ O X . O O # 3 t u w & r 4 3 t * $ O X O + + : 9 4 p i u s c 9 ",
"r.r.r.2 & + @ - * @ @ @ O > + % * $ $ & * * + O + o . X X X O O O O O O O O O O O $ O $ + + $ O . . . X $ & X o ; j r j k 8 , 8 ",
"r.r.r.O O O @ @ + O X o . o O O % O # $ o # O o X O & : 6 e n d e q e 3 & & O O X X X . X X . X . . O + % % o X o + + * * * # $ ",
"r.r.r.. X X X O & & + O . . % O : o $ + , 8 9 k m u w m M J g e a H J T F k 4 X X O & % , + O O + X + % % & + X . X X . . o o . ",
"r.r.r.4 6 & $ & $ & $ $ o X . . . . + r T B b b g 1 k M  .c ! U n H U 6.&.R q O # * 3 q * X @ ; 5 i 4 & ; ; % @ o X X X X . + X ",
"r.r.r.' b 4 q s N g 4 w g 4 @ O O O * L c r b d h ( ` m V x ' z T P S f ! K e O o = T C g 2 x l c g c v w j w 6 1 - @ & & & O . ",
"r.r.r.E V ( )  .X.b $.$.T c - $ % % r b , s m d S [ L e w { U ' U ! 0 i ~ e e + o ; f g m l ! P M ) } ' ' ^ _ I ! R e @ & & + @ ",
"r.r.r. .T [ j T T ] k G [ k q O & 6 j V g q e d C V C u u R ^ $.h z l ! z b h + O % f Y b C U m A I L H P P H U / n 2 & O $ e a ",
"r.r.r.=.` A 9 L m Y [ F L ) ` r 4 ; a c L f a t g { T n a z s n b g U z g _ c @ o % m ' 6 U P m _ G R H z d P V d u w % + > z w ",
"r.r.r.[ N v ` I s L u r g I V g $ & c u U t u h ` =.V 9 t V 4 s a 5 H z { c B + . + r I N &.i P H  .F d E } d a V g u + O V ^ u ",
"r.r.r.E V T %.H m A M t h i V A # O i 1 g k 1 V S g u 5 n : t r : u l C f w C & . @ 8 < L H b  .~ d s m z t A T h c 9 $ O h 8 m ",
"r.r.r.) A %.| T L ( k A x V A 6 # < u u k A 3 f * n 3 B u r V f l e 3 y r j V 8 . % w C i 6 ^ h G r t 1 a S ;.U a u 7 + # r u t ",
"r.r.r.T T %.E U g A h ( N Y 9 4 * * j b V r t S h > 9 s f c g u V 3 8 B > b Y f O + l Y t c 3 u r 9 > a m ` M R t 3 4 X $ i t B ",
"r.r.r.g g N c m V V ) j T l $ O % * * k s 4 : w s 6 6 N g 6 i S > : 8 D y Q H 9 $ $ S L u : 6 N c u 3 u i h f V e j ; + : b i v ",
"r.r.r.6 ( 6 Y f m ) V > s & O $ * O O X & @ 6 2 4 : 3 9 3 4 , $ ; & o = % y c 3 $ O c Y g 8 f D r 6 g i q t j g k h & + 6 r r r ",
"r.r.r.v x 9 w 4 q t % & + + @ & % % # O X . O + X X X O @ @ X O o o o o o o + + + + + r k w 5 w 8 v i 9 3 7 t u i u > $ # & v y ",
"r.r.r.3 3 ; @ & @ $ O & q & w w 4 4 2 4 1 O   O + O X X O X O O . O o o o o o o X o O + + % > $ O * * $ + % + % % % O + # % 4 i ",
"r.r.r.$ + X + O . X & 6 u f &._ $.T I V d n & O % & X O $ $ O . & & 2 > > 8 p 8 3 6 6 4 X . . X . . X . X O X X X O + O $ % * o ",
"r.r.r.$ O O O o O g 6 3 f A $.r b T V k F _ 6 + X & @ O $ X O w  .H 5 h i U b m u u g W S o . + o o o + O O + X O O ; & $ O o o ",
"r.r.r.# O + ; 6 ) B a f 9 ) L u E r l Z =.^ 6 1 4 : & * 3 w u r ~ 4 C I u i c d 6 u c ) T q + X % O # O O X X X O O @ @ & $ # X ",
"r.r.r.o + & = S b N S f 6 6.g L A E b U | U a V c * % 6 J g T X.i i ! U d C { S M u s z F c 5 . o X + o O O @ $ @ - > ; 3 : 4 3 ",
"r.r.r.+ % 4 2 t M *.$.h U  .^ P [ N &.J M t A a - $ $ l G 2 P n u U / n b U I S b d e z U V { % . + O & @ 2 a ! ` B E m H V s n ",
"r.r.r.@ : q 4 L [ &.M  .T P P L j $.[ w g h P z 1 O $ a 4 r R N m M M h h L ! L I g h M e Q ! & . @ + e u u R H a $. .u h s k ^ ",
"r.r.r.$ 2 1 f ) V h l ^ u h T r m G z k h b G t % # X - & d b h z ^ H e d M b g l b e g w ~ C @ . @ : w C V M ' H ' 7.c w 9 h G ",
"r.r.r.% > 6 H 6 h m P w t I B T q F M j V V g R - #   O : w f s H M a q F h w y e 9 h j m ! h @ . X - u 0 M =.H t !  ._ m f P ` ",
"r.r.r.& w a 6 w h m d 2 N W L 3 g l m s a f b q * O   w w 4 s q l a 8 l Q u w 9 9 u I c b l u & X . : 4 n  .m z a V ^ } J H G V ",
"r.r.r.& e & - l e q s a s F 3 d M R q w N y k : O # X w 2 w r N u w l B e u 4 u r c g p c 6 i $ X . & > ! ! ! ^ c t a U n g m g ",
"r.r.r.& 2 : w M 4 M q e d : r z b i u j i i u : $ & O q w k 3 r 2 9 w : e y e e p Z 7 N g i 7 . X . > e a H ! M w 9 R n q L r d ",
"r.r.r.- 6 $ q X u u & e 2 4 u c k u r k r 3 3 & & O $ q r u # 1 3 u : w N B u 9 Q 8 Z y j ( v . . o 6 l 8 M l e 4 q k q d c 6 s ",
"r.r.r.& : : & + q & 4 & 4 t j Y i 3 3 i # ; % * 1 O O $ 3 q $ # r 5 < r D j i w r ; c y ( x 4 + . X & & 4 u t 9 6 d e z e B u w ",
"r.r.r.$ o + % O X $ # @ & * % O % & ; # # + o . X X O O + - $ + % O : 5 r : j r < i 9 x u i o % O + 4 & k u q 2 h g [ s V [ a * ",
"r.r.r.2 + o O @ $ O # O % $ # O o X X . . . . + O X O O O X # % * 7 9 p r $ x : r r % r u ; % + O + 3 - g ( k 6 G J h s $.c 3 & ",
"r.r.r.O + + o . X + O X O & @ X X o . X X + # # O O O O + O . O # < 7 8 * % + + % = * ; @ O X O & & : > i c & a z d h t 9 3 + X ",
"r.r.r.X . . . . X # O O # + # & r t 4 f t 4 q a u w 2 2 r f , @ # $ @ @ % @ $ @ . o # # . X O O $ + @ & 3 4 9 9 ; 9 & @ + X X X ",
"r.r.r.2 w l 8 < : O O O $ 4 t T ) L &.6.U R F J ^ E R M H _ G $ # % % @ + @ + O X o + O o ; $ % 9 + o X o O + O $ O % O O X O + ",
"r.r.r.b c u &.C c # O + * t E ,.T _ F q b } ' P 5.$.;.;.V 6.| J % + + @ % = = @ O . + * * ; : & @ & O o + + $ * @ w ; w c m g h ",
"r.r.r.N 8 v c J m 3 O . : u ) ,.$.P a a E 5.} =.` ` I r j I V d w X   O > e a q 6 4 6 6 : : 6 ; : 4 6 4 r w $ + + t S ) ~ I E Y ",
"r.r.r.w x c h $.! h % X % q e.%.z ! M  .U F ^ *.5.[ V V t I E b F O . @ 1 6 b $.=.' L M k k k ) w J N H g C x + @ 8 ~ u b Q C m ",
"r.r.r.J V m h M [ z 4 X & b  .! / &.! U V 9 l !  .m ^ g U _ R h a X . + + e 6.7.' G H s l L | *.S z y  .H C l @ % : Q _ c c u H ",
"r.r.r.&.) V k d J 6 & X 1 h d ' ~ &.U S 5 2 l H &.d [ m m m q b 3 O . & q T 7.J F I I L M m G m ' w M U K I 5 @ = c C B a ! b M ",
"r.r.r.&.$.I > R L s + X 2 0 n I / { l w u a M K n 9 u b R 6 l s & O X & t w ' R  .7.^ m 8 b M G l J g H / K 5 @ : e l m ~ c m ~ ",
"r.r.r.M [ i i K h M % X & - l g m C w 9 P I M e u s s b q t w q $ O O 2 > r l F R =.' u h b G h M d ' %.K m 0 O # u I V ` P T m ",
"r.r.r.b g w ' J f a % X @ 4 3 q I I u K { P 6 0 J h h F J w i r $ & O @ 3 & F e e G M M b M L R d V ! ~ v I l @ > 8 m g r r e u ",
"r.r.r.g r h K 6 6 a - X = u : V C C V  .M 5 5 e a r R ^ b T v b - O X % $ 4 E b d s s N I H } k e l x i g i > o $ 6 V S c u e P ",
"r.r.r.b L M z s d i ; X ; 4 6 4 y b C m w 7 m C u J U k ) L r t : 1 O @ 4 d / m 4 G F ! U n h r e u V 8 a w 2 + + 6 c ` U l l S ",
"r.r.r.^ U V e g B l & o + 6 2 5 e J l e 9 Q U 9 V M k i f t 6 q , # O & k T t u V M V c m t 9 c u D g a f e 5 . o & f $.g w M V ",
"r.r.r.~ m 3 w m d u @ X @ 0 = h l 8 q e { c 5 e s m u f 3 7 3 4 4 % $ & V 4 4 B j c f s c u k c i e e 5 i g i o o 3 f A e h $.g ",
"r.r.r.V w 5 r y 6 5 o X @ % 6 c 5 q u s l w w q j u r f 2 $ 3 9 * * O : i r f 4 j V g 4 x N r A c w > 7 g e * o @ j j g b S g w ",
"r.r.r.= # r r 8 4 - o . + @ & 3 @ . o o o . o O $ o + $ + O = & * # + r i 7 4 9 A q q : 9 % * < 5 < 7 : 7 y : + + ; 3 r V u 3 9 ",
"r.r.r.+ # # O . . o . o o . . . . o . . o o . o X . . X X . . O @ % @ - , 3 # O O @ @ & + % $ @ & ; % + + $ $ o # % % 3 3 < 3 & ",
"r.r.r.o . . . . . . . . . . o o . o O o O + @ @ % # $ O + + o . o @ - ; : ; O O O O . O o o . . . o o . o . @ o . o + . X . o o ",
"r.r.r...O.O.......o...o...o...@.o.@...o.o.@.....+...@.-.@.+.*.@.@.@.#.9.@.<.<.<.<.<.<.2.<.2.<.4.3.0.4.4.2.3.2.2.0.0.0.4.2.4.2.<.",
"r.r.r.] ......@...:.:...-.@.o.-.@.:.-.o.@.@.-.%.@.@.-.O.:.@.@.*.o.:.+.9.:.:.3.3.<.4.<.2.3.2.3.3.3.4.4.q.0.q.q.0.4.4.0.q.2.4.3.3."
};
