/* XPM */
static char *_f1307b767fb4a4eab630d1bde152bb4R39PmcrEGo3JaxnT[] = {
/* columns rows colors chars-per-pixel */
"64 64 143 2 ",
"   c #1D140D",
".  c #1D1815",
"X  c #22150F",
"o  c #251C13",
"O  c #2A1D15",
"+  c #241D18",
"@  c #2B1F1A",
"#  c #262314",
"$  c #2C2215",
"%  c #2D231A",
"&  c #332416",
"*  c #322A17",
"=  c #392915",
"-  c #32251B",
";  c #3A271F",
":  c #34291C",
">  c #3A2B1D",
",  c #3D301D",
"<  c #342721",
"1  c #3C2522",
"2  c #352A22",
"3  c #3C2D23",
"4  c #3A2E29",
"5  c #3D3224",
"6  c #3D3329",
"7  c #402E1C",
"8  c #42311F",
"9  c #48311F",
"0  c #402E22",
"q  c #433425",
"w  c #493625",
"e  c #453825",
"r  c #4B3A25",
"t  c #44352A",
"y  c #49362A",
"u  c #46392B",
"i  c #4C3B2C",
"p  c #523D25",
"a  c #513E2D",
"s  c #453B31",
"d  c #4D3D32",
"f  c #523E31",
"g  c #4E412D",
"h  c #54422D",
"j  c #5A452E",
"k  c #5C492F",
"l  c #4D4132",
"z  c #4F4138",
"x  c #544333",
"c  c #5A4534",
"v  c #574934",
"b  c #5C4A34",
"n  c #544539",
"m  c #5A4739",
"M  c #56493A",
"N  c #5C4B3A",
"B  c #5F5136",
"V  c #5E513B",
"C  c #614B2F",
"Z  c #614732",
"A  c #634D35",
"S  c #684E36",
"D  c #62463A",
"F  c #624D3B",
"G  c #694F3B",
"H  c #635236",
"J  c #6A5336",
"K  c #685837",
"L  c #64523B",
"P  c #6B543C",
"I  c #67593E",
"U  c #6D593D",
"Y  c #71563D",
"T  c #735B3D",
"R  c #7C5F3F",
"E  c #70603F",
"W  c #78603E",
"Q  c #544A40",
"!  c #5E4E41",
"~  c #5E5240",
"^  c #634E41",
"/  c #655342",
"(  c #6A5542",
")  c #675943",
"_  c #6D5A43",
"`  c #65504B",
"'  c #6B5749",
"]  c #675A49",
"[  c #6D5C4A",
"{  c #715742",
"}  c #735C43",
"|  c #795E44",
" . c #725E4A",
".. c #795F4A",
"X. c #6E5C50",
"o. c #715F51",
"O. c #7A5E50",
"+. c #6F6049",
"@. c #756144",
"#. c #7B6345",
"$. c #7C6847",
"%. c #75624B",
"&. c #7B644B",
"*. c #77694F",
"=. c #7D694D",
"-. c #756451",
";. c #7B6652",
":. c #776853",
">. c #7D6A52",
",. c #7D6C5A",
"<. c #816445",
"1. c #816945",
"2. c #81664B",
"3. c #836B4D",
"4. c #8A6C4D",
"5. c #8A724E",
"6. c #806751",
"7. c #836C53",
"8. c #896E53",
"9. c #826E5B",
"0. c #857155",
"q. c #8B7354",
"w. c #83725A",
"e. c #8B755B",
"r. c #8E795A",
"t. c #927555",
"y. c #90745D",
"u. c #937A5C",
"i. c #997C5A",
"p. c #877760",
"a. c #897761",
"s. c #8E7B63",
"d. c #947C62",
"f. c #96805B",
"g. c #968162",
"h. c #9A8364",
"j. c #9B8369",
"k. c #9F8868",
"l. c #9F8B70",
"z. c #A18967",
"x. c #A0866A",
"c. c #A28A6E",
"v. c #FFFFFF",
/* pixels */
"v.v.v.v.v.v.v.v.v.v.v.v.v.v.v.v.v.v.v.v.v.v.v.v.v.v.v.v.v.v.v.v.v.v.v.v.v.v.v.v.v.v.v.v.v.v.v.v.v.v.v.v.v.v.v.v.v.v.v.v.v.v.v.v.",
"v.v.P *.F n N M N L H b A ) ( P P ( ' -.;.w.>.*.%.' { ( ( P H V ( _ / ^ / ' ( ..#.( A L %.=.&.&.} _ { _ P U U F c b _ 9.;...7.e.",
"v.v.@.#.x g w N x F c P N F L / S ( ' ( ' L ' [ _ } %.&.%.H B ( ) ;.} ..;.;.#.;.#. .%._ L L _ ' ( F A A P  .>.%.{ 7.7.>.&.e.u.j.",
"v.v.} =./ u l x y i x M F L %. .[  . .' / / L X.[ [ *.%.' ~ L ' [  ./ / P ) / / ) [ F  ._ :.%.%.' ' ^ o.X.-.H [ >.w.r.w.,.s.l.d.",
"v.v.( &.` y   o - @ o o # : % # $ o - : < : : : : & > 2 % : $ % % % : % + + X + % O & > > * * = & - % O X 2 3 u e e , 5 , % d.0.",
"v.v.( _ / N # 5 n t i d 3 n c 2 d u m b x N V / l y L M 6 b l i q u M z q 2 5 4 s 6 ) P H h B v e h x t n / V v x x B M l 6 e.e.",
"v.v. .&._ Q % d ! f N N f / N t N N _ ( %._ } _ V b =./ n &.U M d n N M n u u s Q d &.=.%.} E ) b H b / o.:.[ >.V %.%.%./ d d.s.",
"v.v.7.;._ n : w x x F c b ' ( 6 ^ / @.} 7.=.=.;.+.I w.%.M 8. .b l l ! N M n i d n f =.3.2.$.@.@.{ H S %.-.( *.) ) %.w.w._ i j.j.",
"v.v.>.e.:.N % u c n ( c m ' ( 6 / L  .( =.&.#.%.*.( e.;.M q.%.N M x c N ! f y s d i =.2.2.$.$.@.H H %.+.L %.w.>...&.%.9.' i x.i.",
"v.v.%.w.%.m % e N ^ ' N c ' N q / ( #._ #.&.%.%.-.U >.;.M 3.@.b M f M L x d d y y u #.T $.#.K L -.,.,./ %.>._ %.0.e.;.;.' f h.u.",
"v.v.*.>.%.! - g / N ( b c ' m 6 ` ( ..} &.&.} ..%. .=.-.F 7._ x m x F H i y s t d a &.2.2.@.( [ 9.-.] b >.%. .' 7.=.;.:.' 6 k.g.",
"v.v.:.>._ ! : x _ M N x x F c i / G ..} _ %.=...>._ { ( h W &.c Q w / N d t y y t a | 2.3.Z b  .] M x / %.:.b :.%.>.+.+.l q x.j.",
"v.v.>.>.%.i * l / b F x i N n s N M } #.&.=.3._ *.{ } ' N 2.&.L ! n b m x q d u i a @.T Y A / f f f ' / P H L _ *.+.+.M l + k.k.",
"v.v. . .{ x : l ) c ^ c h ^ M i V ! &.>.3.6.#.P _ / } H c #.#.F ` m N N x y y f v y ( ( b ^ x u n _ [ ( _ P ;.+.:._ ,.b l 4 c.k.",
"v.v. .} { b % i ' b c x x m N s L N ..=.3.@.{ P F c U L f | #.F ' x N c i q d l x i A a c x d i ! %.-.' } H _ ;.w. .,.@.) 6 g.0.",
"v.v.( P  .~ O t b c ^ m f ^ x 3 x N L =.5.{ #.U B f J } f | 7.b m d ^ M x y d d g 3 q i y 0 w y / / i P P ) %.,.&.( &.%./ u g.3.",
"v.v.( / } M O 0 i x F m m / m : N / P 7.q.$.#.S I c P :.i $.7.N x y x f i y d i 0 2 f f t y d f ! x M 7...&.) ) ( &.=.=.P i u.0.",
"v.v./ P  ./ + 0 d c m N N F m 4 N / ( 3.r.0.=.&.@.) } ..x 4.0.N n w i x x y s q i ! t d 4 4 4 s z c %.>.s.%.) A } %.>.=./ u q.r.",
"v.v.L _ o./ O 3 f F a a m N ^ t n P L q.u.3.@.$.&.V 6.@.i 1.#.h t 6 w d s 6 : w b > t 4 3 0 q w n / %.h.%./ i ' } *.e.e.) g q.k.",
"v.v.L L  .( + q m b m i x m n 2 N ) Y =.3.$.T T @.b @.{ i @.} f y 3 3 y 5 : d a r w 6 0 0 d y w b b 7.} } ) x >.w.7.=.6.V 6 r.f.",
"v.v./ L ( l $ t x N x w i m m : / ' J @.@.T T T @.v { @.i #.=.e t < 3 n > a V c c w 0 0 q u y q h _ } _ } ,.N s.r.,.=.=.N 5 r.q.",
"v.v.L P c h o 6 l c a y 0 x m : y F J @.T J T T T v T T x 1._ q 6 2 2 6 h F x m a a y 7 u x l v L L H _ 9.w.! s.e.>.e.=.N 5 u.r.",
"v.v.L P j r O 6 i i y w y y u % u F S 3.@.T W $.@.M _ #.x 3._ 3 4 6 1 f c Z N c d y y i r x h H B L h &.6.w.v >.$.7.e.%.I 5 u.f.",
"v.v.P P L c o 6 e y d w w a y < d ( A $.@.W W W >.v T #.b t.( 5 4 - f S U F f y y q i r i v ( L B a Z ( 7.w.L >.2.q.#.0.B 6 r.q.",
"v.v.( { ;.' o > u h i q w i y : t c c } W $.@.2.P r P K x 5.U 0 ; w J Y J F i r i d u y g b ( / > b A } d.>.' w.6.e.2.q.B e w.0.",
"v.v.P %...( o 6 u r y d q a i : 5 b S $.q.=.1.#.U q P U d #.P > w L Y T Z a m a y y 5 x x b B i i F _ q.d.>.F s.7.3.7.=.I 5 w.=.",
"v.v.F ..c b + 6 q i y y q i y < q f A | #.4.1.#.{ 7 K U i <.C a T { T Z y y c d q w y x i L i x b %.>.q.g.9._ 0.| #.6.&.L q =.>.",
"v.v.A x N F O i q x d x i x i 2 0 b G T T @.&.$.+.0 ( b u Y S S J | S p f F D f w y r i A } ) ) N 7.w.u.d.>.` 6.#.T #.$.b > @.%.",
"v.v.L ] L P @ y x V f x c N x : y b { Y T T #.@.U q P k q J | Y T U A h b b c c y a a i J 6.' n c %.w.q.q.o.M 7.q.#.@.=.V 6 &._ ",
"v.v.' -.' ( o q i v x N b A A 6 i P | J U R W } P w A p P } T | G p h x b i f a x c a Z } 3.P x M +...q.d.-.m #.2.$.q.=.v , %.P ",
"v.v.( -.;._ O y a h c G F P b 2 g A #.} T T J Y K i i J i.#.3.} Z j F c c w h ) h h h U 2.2.F f x _ #.3.e.,.n &.#.#.#.&.b 5 } _ ",
"v.v.b [ >./ o y c h x F S Z c t x b { Y J T U T L 7 P 3.t.8.8.} | } L N x w j N i > P 8.4.e./ Q f c @.2.3.,.M } } #.=.#.N 4 S U ",
"v.v.h ~ _ / O i P A c D { } F 4 c c { P { U J { c c 6.4.i.3.U #.| ..N i h b k c - 6 %.q.t.u.+.n y c 7.&.} ,.v >.=.} } T b : S %.",
"v.v.x / F L & a ( a x A } 2.( q L j J J } { { A L } &.y.3.} } { { b x b @.H A $ 4 i { q.u.q.P n y n >.@.P >.v >.q._ 3.P c : P P ",
"v.v.h v x N % a F j f b | <.O.i c j P P } Y S { =.} ( 6.T { } %.F i P K K L , < < 2 Y R q.8.b y i N L U } p.h =.e.&.w.J M 2 } ( ",
"v.v.h x h b $ y G b a A | } ( d ) P #.} } Z | y.2.S K A =.=.&.( a Z U @.U 8 6 2 4 > { T 8.d. .x m M A S A [ d >.q.+.q.} j : :.S ",
"v.v.) c N F @ f G A f S Y J J d ' K 3.@.b U 8.i.J | S %.@.%.U b a h U P g g g - 4 3 P } #.7.V w c h a N h N s ,.0.>.e.b i > %.{ ",
"v.v.M x f m O b #.( D Y T S P i +.U #.b U ;.| <.=.P } { w.L b ) b @.} j h h a 5 4 ; F Y T 3.x c F c r h f M t ( @.U 7.h y - j P ",
"v.v.F c i F % b 6.;.{ ( @.U A d _ K { A 3.2.8.8.&.U 0.P H N L P _ U C K h h c y s - U S @.=.F P ' b i c f y : m P H @.b q $ _ } ",
"v.v.c n a ^ - P 7.6.G Y 2.{ F y +.c F U | 8.2.( P { } j _ } ) _ L P H U g v v t s = P U $.&.P F U H c L c x % c U H P j y O =.=.",
"v.v.h f a M - P =.} P S #.| P t V h F P 8.| #.{ U H c A } @._ P c } _ H h v L 8 t > H S | | S ( P P P U c f < N J H U h q $ @.=.",
"v.v.r n y c 2 ( e.=...#.6.| J ; V } P &.#.| T P U b L )  .@. .q b _ @.P H L @.g , * U Y R Y j S P P J A N r 2 c A S J h y & 2.7.",
"v.v.i y w x > I r.6.6.r.8.| A ` %.L @.#.T A P +.( L [ L +.$.Y y i U } @.[ H U v i : } 6.2.| j L P P S c b i : q P A B a i : 6.2.",
"v.v.h ) g M > %.e.y.7.w.#.L P ;.) ( %.} P H A ) N L B +.+.K >.i x ( @.( b i S i l > ..2.4.| J H P c c f ^ c q b P S H c q O =.} ",
"v.v.) X.c ^ 6 _ e.d.%.=.U h A I c / _ } U P V h c H [ %.f :.&.i M A U ' b w K B x 5 &.3.4.2.L H B b b y c / i i b P P b y - 3.8.",
"v.v.%.-.b %.3 [ r.q.@._ c h k H x y / @.L / l h b L ( v u &._ i b A { U v > L h M , E #.3.| P K B c N i i B q u C C A b d % 7.e.",
"v.v.>.,.%.7.2 P %.7.} c x a a w q a A _ P N b c P b a ) i =._ u ! P } P c 5 +.b ) q } #.| T P Z A c N c r N ; i K H C j y @ =.#.",
"v.v.w.p.3.s.> m } ..b ( F { m f i F @._ b N L I x c p :.y 3.%.i / H ( P x q b _ ] x &.5.R Y L j c h F b h h 5 h J A K h y - #.S ",
"v.v.w.s.w.e.: m / D c Z y.0.L a x L L a a } _ N 0 / h @.w =.} y / P #.{ h 5 b L ) x t.4.2.#.P M h P P c h h 2 i T U K b q & P C ",
"v.v.;.r.=.7.- a _ D A T i.q.=.F L A c a L } b i d m h >.q =.L l H ' @.U h u _ x N h 7.4.4.=.A P b ( I b c b : h T U T b q $ T T ",
"v.v.#.7.} *.X l ,.P 6.t.5.3.Y _ | b g b S b r i c / p } q >.( x F ( U P x y L b ~ h | <.4.@.U N N c c A c b - c R T T L 9 - T =.",
"v.v.3.>.U >.5 L } 2.y.3.4.=.( P h h x P j x ^ r b [ Z +.q &.L i A P P _ b 8 P N N i | 4.4.} ( b c b c A G _ 0 F T T W Z w $ 3.3.",
"v.v.7.} } @.r B >.k.y.8.#.@.T F h b } b c ( ( c h c A #.y } ) q F ( H U f q P m M y #.4.5.T P M m x _ U Z ( - { 4.1.T K v & 0.2.",
"v.v.7.7.7.%.8 F 6.8.| 8.#.#.F a ) _ A ( v H P ( N N L %.d } F i c L k L x q U  .v c 4.2.q.T } x c c ' P b L 3 ;.1.1.5.} V * 3.@.",
"v.v.=.*.7.e.3 b J | 3.#.} _ j N ( c H &.H H H L _ ( K =.y ' N i c L S L m d U } x w 2.8.q.K b x M a %._ H H 3 *.5.5.3.=.V > 3.@.",
"v.v.} =.r.7.> Z S 3.=.P J k b ' A k #.=.K F c b P c A $.w ( b i b G A / d i P _ i a 3.2.3.J L b c h H H K ) 2 ( $.5.5.0.V > 6.J ",
"v.v.=._ #.3.7 j S &.P L j c ) ) ( P &.%.N v v i h M g +.y I v u h c c b i g V V t q @.| 3.H v i h c k v ) Q - l K =.=.2.H * &.b ",
"v.v.T U U &.= e F N a i g v l 5 / d c N l u d 4 g s w N : g u 5 q y q u > 6 l l 6 3 b S H a t t i i g g x s . s i F ) I d % =.H ",
"v.v.A L #.@.o - 6 5 2 & 2 :   o 2 % $ : $ : % @ % % $ - + & @ X - - o O o $ : : + @ = 3 : : @ % % * % < $ +   # # 2 % * # . e.) ",
"v.v.} { =.} A h H [ L N N N F F P A b L B L F ) L P H A j D S F Z b D A b P } U 7.#.| 6.=.;.P [ _ X.F x f d ! c b _ _ v ^ @.w.%.",
"v.v.{ P @.| U P &.P / S F c b j c S A Z K _ { T } { U | Y | } { P S F G U #.} } 8.y.y.d.q.@.@.%.:.) / c x M S h H F ( N h H =.7.",
"v.v.S C A J S Z } P S P { U | } U Y U } | 3.} T } #...| } { Y &.{ A T #.} { 8.8.6.8.#.6.U U } >.*.%.b [ [ L N f ) _ _ b c Z L { ",
"v.v.Y =.6.| { } ..| ....| | Y Y Y T | | } #.#.T <.2.#.| Y Y } ..S S ..J J G 7.8.6.6.6.&.P } } } ' L ) / *.( F b b P _ L L _ U } ",
"v.v.| | | Y } | | 2.2.2.} { { Y Y | @.#.<.#.#.Y T J S Y Y Y } | } ....} } ;.#...} } } { ..#.&.&.%.P F .._ U / ( ( %.#.%._ { U P "
};
