/* XPM */
static char *_8f66c3ce6a4405df02ba33886200cf0FRqMJYkJlRh2tOVS[] = {
/* columns rows colors chars-per-pixel */
"64 64 216 2 ",
"   c None",
".  c #5B7B7D",
"X  c #55797D",
"o  c #5E817D",
"O  c #62817F",
"+  c #4E798A",
"@  c #547681",
"#  c #557A83",
"$  c #5A7D85",
"%  c #517789",
"&  c #557C8B",
"*  c #5B7D8B",
"=  c #547C93",
"-  c #5A7D93",
";  c #5B7F99",
":  c #617F86",
">  c #5D8285",
",  c #5C828C",
"<  c #5B8689",
"1  c #568294",
"2  c #5D8393",
"3  c #55849B",
"4  c #5D839A",
"5  c #5E899D",
"6  c #628485",
"7  c #62848C",
"8  c #69868C",
"9  c #658A8D",
"0  c #6A8B8D",
"q  c #688A85",
"w  c #69908F",
"e  c #72948E",
"r  c #638593",
"t  c #658A94",
"y  c #6B8C94",
"u  c #61869B",
"i  c #658B9B",
"p  c #6A8D9B",
"a  c #698792",
"s  c #718F95",
"d  c #718F99",
"f  c #679294",
"g  c #6C9194",
"h  c #6D929C",
"j  c #6F989C",
"k  c #65919E",
"l  c #729496",
"z  c #749896",
"x  c #73959B",
"c  c #75999C",
"v  c #7A9C9D",
"b  c #789799",
"n  c #7CA29D",
"m  c #5D83A3",
"M  c #6386A1",
"N  c #648BA3",
"B  c #6B8EA2",
"V  c #6B8EA9",
"C  c #6591A2",
"Z  c #6D93A3",
"A  c #6F99A6",
"S  c #6C93AB",
"D  c #6E98AB",
"F  c #7395A2",
"G  c #7996A2",
"H  c #749AA3",
"J  c #7A9CA3",
"K  c #7296AA",
"L  c #759BAB",
"P  c #7B9DAB",
"I  c #7396B1",
"U  c #749AB1",
"Y  c #7B9EB2",
"T  c #799EB9",
"R  c #7CA2A4",
"E  c #75A1AD",
"W  c #7DA2AB",
"Q  c #7BA6A8",
"!  c #7DA3B3",
"~  c #7DA2BB",
"^  c #7AA5BA",
"/  c #89A99E",
"(  c #819EA5",
")  c #819EA9",
"_  c #809FB3",
"`  c #82A4A5",
"'  c #85A9A6",
"]  c #83A4AB",
"[  c #89A7AD",
"{  c #85AAAD",
"}  c #8AACAD",
"|  c #89ABA4",
" . c #8CB1AD",
".. c #8FB0A7",
"X. c #93B5AD",
"o. c #95BAAF",
"O. c #9ABFAD",
"+. c #83A5B3",
"@. c #89A6B3",
"#. c #85ABB3",
"$. c #8BACB3",
"%. c #84A6BA",
"&. c #84ABBB",
"*. c #8BADBA",
"=. c #8BA7BC",
"-. c #91AEB4",
";. c #91AFBD",
":. c #8DB2B4",
">. c #8DB3BC",
",. c #8FB8BD",
"<. c #85B2B8",
"1. c #92B4B5",
"2. c #94BAB5",
"3. c #93B5BC",
"4. c #95BABC",
"5. c #9ABCBD",
"6. c #99B8B8",
"7. c #9CC2BD",
"8. c #99C1B9",
"9. c #A1C3BF",
"0. c #A5CABB",
"q. c #83ACC2",
"w. c #89ADC3",
"e. c #85A9C7",
"r. c #85B1C6",
"t. c #8DB4C3",
"y. c #8EB9C3",
"u. c #8CB4C9",
"i. c #8FBCCF",
"p. c #93B5C2",
"a. c #95BBC3",
"s. c #9BBDC3",
"d. c #92B6CB",
"f. c #98B7CA",
"g. c #94BBCB",
"h. c #9BBDCB",
"j. c #98B5C3",
"k. c #8BAFD1",
"l. c #9ABED3",
"z. c #95BBD2",
"x. c #A0BFC3",
"c. c #A0BEC9",
"v. c #9DC2C4",
"b. c #9FCBC5",
"n. c #9DC3CB",
"m. c #9EC8CD",
"M. c #93C3C7",
"N. c #96C1D1",
"B. c #9EC3D1",
"V. c #9DC4DC",
"C. c #A2C3C5",
"Z. c #A5CAC5",
"A. c #A9CAC3",
"S. c #A2C4CB",
"D. c #A8C6CA",
"F. c #A5C9CC",
"G. c #AACBCC",
"H. c #ADD2CE",
"J. c #AED2C6",
"K. c #B2D5CD",
"L. c #B1D8C9",
"P. c #A3C5D3",
"I. c #A9C6D2",
"U. c #A4CBD3",
"Y. c #ABCCD3",
"T. c #A4C7D9",
"R. c #A6CCDB",
"E. c #ABCDD9",
"W. c #B1CED7",
"Q. c #ADD2D4",
"!. c #ADD3DA",
"~. c #A6D1D8",
"^. c #B3D3D5",
"/. c #B5DAD5",
"(. c #B9DBD6",
"). c #B3D4DB",
"_. c #B5DADC",
"`. c #BADBDD",
"'. c #BEE1DC",
"]. c #A9CAE3",
"[. c #ADD1E2",
"{. c #AED5E7",
"}. c #B4D5E3",
"|. c #B5DAE3",
" X c #BCDDE3",
".X c #B4DAEA",
"XX c #BADCEB",
"oX c #B0D6EB",
"OX c #BDE1E3",
"+X c #BFE6E7",
"@X c #BEE1F4",
"#X c #C0E2DD",
"$X c #C4EBD9",
"%X c #C2E3E4",
"&X c #C3E4EB",
"*X c #C4E9EA",
"=X c #CAEBEC",
"-X c #C8EBE5",
";X c #C9F0EF",
":X c #D3F4EF",
">X c #C5E5F3",
",X c #C6E9F2",
"<X c #CAECF3",
"1X c #C7ECFA",
"2X c #CDEFFA",
"3X c #C7E6F8",
"4X c #D0EBF2",
"5X c #CCF3F5",
"6X c #CCF0FB",
"7X c #C5F1FC",
"8X c #D1F2F5",
"9X c #D3F4FD",
"0X c #D4FAFC",
"qX c #DAFCFB",
"wX c #D5F9F6",
"eX c #E3FFFF",
/* pixels */
"                                                                                                                                ",
"        x ( ( 1.G.^.Y.3.{ h p F h Z W $.( b ` Q x t g a.T.^.C.H g 2 5 ^ V..X5X(.X./ e . 8 8 p +.F.m.Q.'.`.Z.} U.v.h Z A # W n.4.",
"        v x R v ^.-X .L i Z x L Z L %.=.G d x r , 2 i *.S. XH.n Q >.y.M.a.~. X^.-.: 8 7 8 i & ! !. . .X.n 4.h F ! 5 p h J { #.` ",
"        c ] 1.$.Y.4.R P Z p i Z %.l.l.l.p.F r i u 4 K =.s.qX/.' } &.! <.b.H.&X4X) : a i ; M - y.,.0 o . , t u u L ~ ! L ! H h H ",
"        $.$.R ] 3.r p H F B i V u.l.u.] x 7 2 u & = ! +.$.^.} h h u B :.Z.7.H.#XR y r 4 p 5 L n.h t r u M M 4 ; L r.q.^ U U ! Q ",
"        F 6 # 7 E p i h W &.d.d.d.! i $ $ 1 t ; N ~ &.E $.H y , - u r.S.:.R n ' >.Q h B K P E ] Q u M M T oXd.z.l.! z.i.q.&.y.g.",
"        ! Z 2 h F u p P ! >.h.E.a.h # r t 3 ; m w.R.P #.1.Q &.! P #.s.3.-.1.{ F <.,.Q Q f g , 5 d.I V L @.P.B.>.>.g.M.m.n.m.:.j ",
"        *.d.K F ! Z E c <.a.n.Y.2.H F F L T k.k.V.1XG.8.z W W +.m.OXC.$.( _.y.#.#.f Q w < > < < U ].@X).Z.4.7.:.v.:.n Q  . .{ Q ",
"        a.<.%.w.T.M.] P &.b._.*X).:.x k 4 5 N 5 u._.v.2.:.&.! ! &.7.L.] 8 ).}.-.+.@ # & 1 1 5 5 F &XeX#X$XL.K.(.:.` ' ' c < 9 F ",
"        ,X|.T.B.R.a.M.T.U._.F.!.:.# , , 1 - 2 E _.'.2.:.4.h.u.&.$. . .4.P T.%XC.( X , & 3 m 3 k C.K.K.K.8.A.-X#X .' J G y 6 7 1 ",
"        :X/.Z.#.P ! n.m._.OXM.s.=.G h A k R U.wX0XH.' J t Z g.m.$.R Q f.T.^.(.9.v t 1 ; m S E g.<XX.q 8 t y ) 1.' x [ h.=.=.%.B ",
"        o.2.{ c E i ! a.U.n.M.).t.F F K L ! 7.-X-X7.} h.P p E 8.M.4.:.P *.[ ` b 6 F U w.V.oX7XqXZ.6 : - = - r p x G #.W.}.T.T.f.",
"        o.( 1.@.{ W H ! c h. XOX_.%.K I q.$.1.%X-XC.*.E.m.U././.Z.:.z b v y - - L R.,X|.Z.E._.@.i p * = u N u V +.P H s.D.v ' 4.",
"        ..0 8 * h A &.:.M.|.+X)._.h.d.z.r.@.1.#X/.1.4.x 9 n 2.2.n g g z 0 y K z..X{.s.} 2.} v t L B u 4 = 5 S w.=.[ x 1.Z.'  .` ",
"        0 . a P A A Z ! >.v.v.c J s.U.>.>.a.4.W.D.-.5.[ ! { } Q v H c f Q 4.). XI.@.G x n } :.h d Y l.y.&.E h.7X>.x } @.H $ , r ",
"        @ * p U K B L H >.F.R 7 ] 4.S.G.M.s.5.`.D.-.3.4.v.b.:.Q ! >.*.,.~.n.#.] @.] ) x F J >.p.;.P.I.p.n.~.|.0XU.1.H y p p 2 t ",
"        2 L >.E F L Z W 4.<.t i W {  .` :.} :.1.C.=X:.< f :.W h g t f E C t L 3.#.J @.J G H @.;.W.W.H.K.5.5.`.&X Xa.=.;.*.1.3.s.",
"        T g.!.J L ! Z +.#.R h L >.] z b v v v H h #.F # < F a., i i j h ! >.y.>.+.E *.s.*.@.@.( j.6...6.| ' C.4.} *. Xc.*.` *.^.",
"        V.~.~.! E ! &.#.<.y.d.*.*.W R Q { R 7 , 2 4 = m ; V w.K Z Z P #.{ { &.&.! %.*.a.)._.S.2.-.s - ( S.).x.c c '  X^.G.G.Q.s.",
"        {.'./.T.*.>.n.4.S.[.!.d.a.&.W #.j , & & 4 M U S V U r.&.T.s.>.W J ' :.$.&.@.+.j.W [ v.:.b : ; - F >X Xx ` ' C.(.=X=XQ.@.",
"        ,.2.Q.^.3.4.@.5.^. Xc.x P G h i & + 3 N S ^ u.%.>.P.S.4.`.&X-.] +.@.} } 3.s.p.%.%.h l p : * * F d.%.p.x g :.' Z.-Xv.t u ",
"        ' } ^.`.v.4.3.C.[ b : * d d , + 1 3 E &.y.~.n.m.U.Q.C.D.C.eX%XD.C.c.v.X.' ` G %.XXP.3.B.Y p +.T._ - G y y l c v s.R , t ",
"        Z h M.$XZ.4.n.t.y r u K Y @.<.k k A y.m.M.Q._.G.G.{ } ( @.D.W.-.[ ] [ H s J 1.s.&X9X}.).T.4.$.1.-.G ) P ] y r G P i t h ",
"        i H Q { < v.0XB.*.d.g.[.T.P.4.a.m.U.y.a.>.F./.G.} ] s s 3.[ y 6 X # r B G J ` l c c.l.4.4.*.T.=X`.).XX3.P P F p L p p Z ",
"        H J v t >  .8X} $.s.U.%X^.1.} 4.s.s.G.S.S.<XY.) r : $ F -.@.y # , $ 2 u l.).5.1.4.b 6.T.j.C.wX/.2.!.&XE.@.&.%.Y K N p p.",
"        W W ] y $ $.Z.9 > J :.9.:.R c ] b ] } Y.9X}.j._ J d x ) $.1.6 < # 2 # L 9XOX0 l s l ( -.n.C.5.l z b v.,Xl.%.=.d.Y G &.a.",
"        < A ^ &.L t.a.c c #.:.4.{ W +.) v [ [ W.&XD.1.J ' ` { { ' ' 9 2 + 2 h _.(.x a 8 . c ( : ] D.Y.1.R c ]  X&X*.*.*.+.P.Q.@.",
"        + U d.P.m.b.,.L W Q <.5.<.! 3.s.*.-.` $.G.%X9.` ` ` v ] J 9 , & = K n./.` 8 7 : y b 6 . 6 l S.^.J } J 3.9X}.*.J H )._.$.",
"        t w.P.Z.L.'. .G L ] j.1.n n 1.n y 9 6 ..6.b A.8.X.` l y h p G L y.!./.W X @.x.x ` z 6 o . p *.>.h J ] @.,X2X$.x y 3.%XY.",
"        }.}._.J.8.0.o.P P =.D.C.D.J.7.t * 6 < j 9.q 0 5.v 9 { W L w.! d.|.U.v p ( W.D.-.5.z 6 l g +.h.F t y F #.C.j.x H ] $.%X`.",
"         XU.s.s.n 2.Z.5.S.S.^.`.%XG.] ^ D 2 u &.n.i * 7 9 F S.d.! &.>.4.@.c.E.a.x.=X^.G.5.] <.n.m.R.! F p y p 3.*.] =.c.c.-.s.3.",
"        1.4.P t n 8.4.} %X=XqX:XG.] @.~ q.r.%.].P.K %.P +.x J s.E.4.s.@.H D.<X5.9.qX9.` ` H >..X.Xm.< , i 7 ! s.] h.S.-.-.;.[ d ",
"        t , 2 A R R n v e X.A.(.K.>.] P 3.S.Y.W.`.C.H t y F Y.9X^.x.s s v c.3.-.5.D.] ` x ] s.a.J 7 , - ; i =.1.s._.5.1.%XZ.0 J ",
"        2 , h P E 0 > # . . . ( `.^.$.] ] 8 8 C. XC.] ] J D.`._.6.( . 8 ) ( b 5.Q.W l 8 J s.3.a * y r B K T.g.n.Y.3.1.1.`.^.a.3.",
"        ; 3 p P G u : - 8 * a p G _ ) ( c } D.`.&X%XZ.C.E.5.v.`...b ( -.) P ] ] C.[ [ D.s.1.1.s.s.j.>.4.U.&XS.s.{ y l x H G j.+.",
"        4 Y +.P p * - - ; B V _ ) ) x &.j.C.6.] } 1.] J [ :.] S.W.-.[ v x ] ] ) x 8 g $.` s @.^.Y.-.1.} Z.^.Q.4.y y 8 r F G P p ",
"        j a.:.F 8 : u B S q.K L -.D.W.S.*.F r 6 : : 7 8 t ,.3.3.D.6.b H ] Q F ] x y 0 y G -.5.4.-.-.-.1.1.Q.^.] d - B F @.+.* * ",
"        2.H.' t 7 p F B ].2Xl.J S.I.S.+.p 7 r y 8 7 7 $ t F 4.F.x.5.} J h P #.c ( 4.@.| x.D.-.-.1.[ v x w 1.S.G G ) _ f.%.p.P F ",
"        0.'.' f g x p x s.=XqXOXb.n g t Y P y y t 7 t 7 , Q J ] x.s.1.x F @.Z.s.s.Y.E.s.D.3.[ 1.[ y 7 0 g ] }.[.f.p.%.F P s.S.4.",
"        | A.R j Q { J b  .(.:X^.f X < 4 % L p.x r y $ , h c t $ x S.`.H.4.1.4.C.`.%X&XY.3.+.W H p a p p t p T.3Xf._ F P 3.Y.E.:.",
"        8 x y Q P R Q } 1.^.A.` , , # & u $ P E.3.@.H 7 H H , 9 $ 0 5.%X^.^.D.W.D.Y.G.j.W , p r p A Z i B p ) 3X) a j.^.Y.T.s.g ",
"        - r E G s.v.:.$.1.C.Y.$., $ u 2 & 4 r 4.^.2XS.[ { h $ $ $ J 1.6.` 5.-.9.x.J 7 7 H Z , i Z F i B B i F Y.c.3.] 4.D.1.c y ",
"        V _ *.T.s.c y y 9 #.!.L $ , * - & r x W Y. XC.4.M.P h W ] 3.1.v v } b y x , $ 2 i L u A C ! K h a p H Y.C.*.} 1.C.5.P u ",
"        %.].*.D.-.` x g E >.~.a.h r * * , * P x D.8X_.S.{ J 3.F.). Xs.-.1.y > > X 9 r i , H E ! i A G F y @.G. XD.| n ' 5._.T.&.",
"        d.h.c.s.' ( J P #.#.y.n.@.l 7 2 & t J J G.4X} v J { s.|. X4.b ] a.t < p * r < * 5 h L M.g.t.>.<.s.E.&X=X} 6 x | 3.x F l.",
"        &.H s.C.] { c J F +.*.S.4.@.c i F #.#.R x.5.( v l { a.{ J s 9 , #.! < 2 , , 2 , < 2 G R.,X!.a.3.+.-.G.S.} 3.Z.4.c h h p ",
"        :.Q H , , >.Y d P W ) S.P.#.*.a.M.j.G.`.^.( z g 4.3.E 0 l y t 2 E N.A 1 3 , 1 5 * t W s.S.Q , r x p s.2X XC.J x l h h F ",
"        R g , 2 5 u h.+.G J ] s.OXF.>.a.C.4.s.Y.-.' 1.Y.s.H R F t g R A r.7X~.! h 5 , , h E ! *.H $ 8 7 y @ @.8Xs.H x x h H H H ",
"        1 = 3 1 5 i U.E.c ] 1.v.Z.`.3.C.v.{ y y 8 y c @.P P F h k f E a.a.Z.^.s.` J +.>.B.u.u.#.r 7 7 , < r :.a.R R x h 2 A A l.",
"        = 3 = V N ! !.v.1.4. .1.R ` ` l 6 6 9 t a p a p G P H L t f ,.5.v.3.5.`.3.{ s.>.h.1X|.F t y 7 r 2 t a.W r Z E H y H ! >.",
"        1 3 4 i !  XE.$.v.Z.2.1.b y h 9 h r , t p r p p F P J p h R #.W Q J G j.-.@.W ] ] OX5XQ < l g h Z G w.B u Z h W v.b.4.5.",
"        L #.T._.6X,X{ 3.1.1.} v y t 8 4 i h t 2 i p p a p J ] G J :.[ R y F p.;.=.*.W $.#.n.*XH.' x x h G K Y A p t *.:.4.b.!./.",
"        !.Y.F.E.Q.1.Z.s.[ ` ` d y y i Z C D C k u t i y J a.&XW.s.] $.[ 4.a.v.4.$.J y y F W Q >.n.x y x P ).S.x ] } J x c :.U.4.",
"        wXQ.Q $.s.5.] } 1.-.( d y p B S q.E 5 k u t H $.:.S. XD.*.( ( J W :.s.Q.' s x a i i p W s.S.F.D.C.&X XC.:.l 0 y t h B.n.",
"        H.Z.v.2.] C.3.5.G.S.] c p p C D r.N.^ ! *.a.n.Q.4.3.' s ( $.] W W 3.C.(.2.R y y p Z F L H S.S.G.C.C.A.1.} W d i P K d.U.",
"         .5.R , y 6 ] 1.1.s.a.@.k i k D r.N.~.{.>.Q 4.4.$.:.y x h y p G G ] Z.`.1.l y h ! g.*.] #.4.` | ' ` G.` y $.;.T.{..X}.C.",
"        Z.R 0 y 9 y h Q J F.M.#.! *.E d.U.~.U.a.Q :.v.5.:.c c v F y t r t x *.+.f.3.@.a.Z.n.4.<.Z.1.] ( s r ] #.7 h s.F.Q.Q.n 5.",
"        s.J p g t H J H ! R 9 h W a.|.U.U.~.S.{ R { l n ` Q { #.3.>.F Z A L t.f.}.&X!.v.' Q 8.v.Z.` 0 r a a u r F *.a.' ' ' 7.| ",
"        *.$.P W H J #.Q h g Q Q &.4.3.[ v.:.v { R e z 5.} Q ! } A Z <.n.n.R.}.Y.s.E.s.:.:.>.F.v.$.l ) @.=._ P Y >.a.` g l Z.G.C.",
"        #.|.h.*.a.P g t f R >.$.#.#.H $.^.g 9 e } ' G.1.Q { x , # 2 i &.m.S.n.D.C.|.%X!.M.a.a.] { *.-.*.p.c.m.a.#.J h $ h  XD.Z.",
"        c I.E.w.a.&.J p W v.4.#.@.#.P J C.} c '.Z.Z.s.` 4.#.$ * < & & k +.v.Z.C.'.(.} #.+.i i +.3.@.| $.2.4.<.Q h - - - V I B -.",
"        s H s.1.R @.U.&Xn.4.{ :.3.) J c 7.$.G.8X^.v.5.P.D.) * $ * 7 , t ,.{ ' Z.H.l 6 k r B %.p.h.c.:.] R c 9 9 , % u M I %.=.@.",
"        ( [ @.@.#.@.:.,X_.1.4.}.).@.] ] ] 1.C.*.G G b s.W.F X * , $ < p ! x W n.:.6 b t c $.!.|.3.v y 2 4 B 4 & % 2 Q M.[ ` $.b ",
"        l 1.1.] 4.4.J } j.4.4.( 4.c.-.] C.S.] y s 8 d j.E.G 7 a $ * r h H L h.S.@.$.,.v.4.:.C.1.s a 7 V I w.^ M B P <.J 9 q . ( "
};
